<svg width="357" height="341" viewBox="0 0 357 341" fill="none" xmlns="http://www.w3.org/2000/svg">
<path d="M337.008 18.738C323.924 6.2403 308.18 0 289.759 0H66.8661C48.4449 0 32.7012 6.2403 19.6172 18.738C6.5331 31.2356 0 46.2737 0 63.8693V276.773C0 294.368 6.5331 309.406 19.6172 321.904C32.7012 334.402 48.4449 340.642 66.8661 340.642H118.881C122.273 340.642 124.825 340.523 126.539 340.301C128.532 339.919 130.332 338.903 131.644 337.42C133.34 335.715 134.196 333.242 134.196 330.003L134.071 314.914C134 305.297 133.964 297.693 133.964 292.067L128.609 292.953C125.218 293.55 120.934 293.806 115.739 293.737C110.325 293.642 104.928 293.123 99.603 292.186C93.9339 291.186 88.5972 288.906 84.0378 285.536C79.2628 282.086 75.7014 277.328 73.8276 271.896L71.5071 266.781C69.5513 262.746 67.0941 258.951 64.1886 255.477C60.8685 251.334 57.4949 248.538 54.0855 247.055L52.479 245.946C51.3588 245.18 50.3399 244.287 49.4445 243.286C48.5893 242.358 47.8853 241.312 47.3561 240.183C46.892 239.143 47.2847 238.291 48.5163 237.626C49.7658 236.944 51.9971 236.62 55.2636 236.62L59.9046 237.302C62.9927 237.882 66.8304 239.655 71.3822 242.604C75.9885 245.604 79.8364 249.548 82.6455 254.147C86.2155 260.2 90.4995 264.821 95.5332 268.009C100.567 271.18 105.636 272.783 110.741 272.783C115.847 272.783 120.255 272.408 123.986 271.675C127.594 270.962 131.099 269.84 134.428 268.333C135.821 258.444 139.605 250.806 145.799 245.486C137.773 244.734 129.819 243.401 122.005 241.496C114.379 239.495 107.045 236.591 100.174 232.852C92.985 229.113 86.6351 224.062 81.4853 217.984C76.5408 212.068 72.471 204.31 69.2937 194.711C66.1343 185.095 64.5456 173.995 64.5456 161.429C64.5456 143.544 70.6503 128.318 82.8776 115.735C77.1656 102.3 77.7011 87.2108 84.5019 70.5188C89.0001 69.1719 95.6582 70.1778 104.476 73.5026C113.294 76.8273 119.756 79.6747 123.861 82.0276C127.967 84.4146 131.251 86.4094 133.732 88.0292C148.244 84.1716 163.241 82.2326 178.304 82.2663C193.637 82.2663 208.488 84.1929 222.893 88.0292L231.711 82.7096C238.494 78.8196 245.648 75.5541 253.077 72.957C261.288 69.9903 267.536 69.1889 271.891 70.5188C278.853 87.2278 279.46 102.3 273.73 115.752C285.957 128.318 292.08 143.544 292.08 161.446C292.08 174.012 290.491 185.146 287.314 194.813C284.154 204.498 280.049 212.255 275.015 218.104C269.774 224.103 263.398 229.106 256.219 232.852C248.722 236.842 241.439 239.723 234.388 241.496C226.575 243.407 218.621 244.746 210.594 245.503C218.627 252.152 222.661 262.638 222.661 276.977V330.003C222.661 332.509 223.036 334.538 223.821 336.09C224.182 336.837 224.697 337.508 225.335 338.061C225.973 338.615 226.72 339.04 227.534 339.312C229.248 339.892 230.747 340.267 232.068 340.403C233.389 340.574 235.281 340.625 237.744 340.625H289.759C308.18 340.625 323.924 334.385 337.008 321.887C350.074 309.406 356.625 294.351 356.625 276.756V63.8693C356.625 46.2737 350.074 31.2356 336.99 18.738H337.008Z" fill="#363636"/>
</svg>
