<svg width="495" height="594" viewBox="0 0 495 594" fill="none" xmlns="http://www.w3.org/2000/svg">
<path d="M55.2496 534.621L12.4702 0H482.53L439.693 534.536L247.214 594L55.2496 534.621Z" fill="#E44F26"/>
<path d="M247.5 548.559L403.044 500.509L439.636 43.7227H247.5V548.559Z" fill="#F1662A"/>
<path d="M247.5 241.991H169.633L164.264 174.848H247.5V109.275H99.9519L101.361 126.883L115.811 307.565H247.5V241.991V241.991ZM247.5 412.279L247.233 412.363L181.703 392.655L177.515 340.362H118.438L126.682 443.294L247.233 480.588L247.5 480.504V412.279Z" fill="#EBEBEB"/>
<path d="M247.291 241.991V307.565H319.751L312.935 392.613L247.291 412.342V480.567L367.937 443.294L368.813 432.22L382.635 259.599L384.082 241.991H247.291V241.991ZM247.291 109.275V174.848H389.432L390.612 160.126L393.297 126.883L394.705 109.275H247.291V109.275Z" fill="white"/>
</svg>
