<svg width="594" height="594" viewBox="0 0 594 594" fill="none" xmlns="http://www.w3.org/2000/svg">
<path d="M0 0H594V594H0V0Z" fill="#F7DF1E"/>
<path d="M156.185 496.389L201.64 468.879C210.411 484.428 218.388 497.584 237.523 497.584C255.865 497.584 267.432 490.41 267.432 462.501V272.704H323.252V463.29C323.252 521.105 289.361 547.422 239.916 547.422C195.261 547.422 169.341 524.295 156.182 496.384L156.185 496.389ZM353.571 490.407L399.022 464.093C410.988 483.632 426.538 497.985 454.048 497.985C477.179 497.985 491.927 486.421 491.927 470.471C491.927 451.333 476.775 444.553 451.257 433.393L437.305 427.406C397.031 410.266 370.317 388.734 370.317 343.279C370.317 301.411 402.214 269.511 452.057 269.511C487.544 269.511 513.063 281.874 531.402 314.17L487.938 342.084C478.367 324.939 468.005 318.161 452.055 318.161C435.706 318.161 425.339 328.528 425.339 342.084C425.339 358.829 435.706 365.612 459.628 375.979L473.583 381.958C521.033 402.296 547.747 423.028 547.747 469.675C547.747 519.919 508.274 547.429 455.243 547.429C403.409 547.429 369.916 522.708 353.569 490.41" fill="#363636"/>
</svg>
