<svg width="544" height="594" viewBox="0 0 544 594" fill="none" xmlns="http://www.w3.org/2000/svg">
<path d="M543.694 134.145C543.896 134.935 544 135.749 544 136.568V263.846C544 267.172 542.321 270.243 539.595 271.897L438.706 333.405V455.31C438.707 456.941 438.302 458.544 437.533 459.957C436.764 461.371 435.657 462.545 434.325 463.363L223.72 591.732C223.238 592.02 222.713 592.205 222.186 592.405C221.988 592.472 221.803 592.601 221.595 592.659C220.123 593.07 218.575 593.07 217.103 592.659C216.861 592.592 216.642 592.45 216.412 592.358C215.93 592.171 215.426 592.009 214.967 591.732L4.40512 463.361C3.0671 462.548 1.9553 461.375 1.18188 459.962C0.408468 458.548 0.000797646 456.944 0 455.31L0 73.4762C0 72.6392 0.1105 71.827 0.306 71.0395C0.371875 70.7717 0.524875 70.5287 0.614125 70.261C0.77775 69.775 0.932875 69.2755 1.173 68.8232C1.33662 68.5217 1.57675 68.2787 1.77437 67.9997C2.02725 67.6285 2.25675 67.246 2.55212 66.9197C2.805 66.6542 3.13437 66.4562 3.41912 66.2245C3.73787 65.9455 4.0205 65.644 4.38175 65.4235H4.39237L109.678 1.23998C111.011 0.427578 112.522 0 114.06 0C115.599 0 117.11 0.427578 118.443 1.23998L223.728 65.4235H223.75C224.1 65.6575 224.398 65.9455 224.715 66.2132C224.999 66.445 225.318 66.6542 225.569 66.9107C225.877 67.246 226.096 67.6307 226.357 67.9997C226.544 68.2787 226.797 68.5217 226.95 68.8232C227.201 69.2867 227.343 69.775 227.52 70.2632C227.607 70.5287 227.76 70.7717 227.825 71.0507C228.027 71.8405 228.132 72.6572 228.134 73.4762V311.963L315.866 258.473V136.557C315.866 135.747 315.977 134.921 316.174 134.145C316.251 133.866 316.393 133.623 316.481 133.358C316.657 132.869 316.81 132.368 317.05 131.918C317.214 131.616 317.454 131.373 317.643 131.094C317.904 130.723 318.123 130.34 318.429 130.014C318.684 129.749 319.001 129.551 319.285 129.319C319.615 129.04 319.9 128.738 320.25 128.518H320.261L425.557 64.3345C426.89 63.521 428.401 63.0928 429.94 63.0928C431.478 63.0928 432.989 63.521 434.322 64.3345L539.608 128.518C539.979 128.75 540.264 129.04 540.594 129.305C540.866 129.539 541.184 129.749 541.437 130.003C541.743 130.34 541.962 130.723 542.224 131.094C542.423 131.373 542.663 131.616 542.819 131.918C543.069 132.368 543.212 132.869 543.386 133.358C543.486 133.623 543.628 133.866 543.694 134.145V134.145ZM526.45 258.476V152.636L489.604 175.093L438.704 206.125V311.965L526.46 258.476H526.45V258.476ZM421.164 449.94V344.025L371.095 374.303L228.123 460.703V567.61L421.164 449.935V449.94ZM17.5504 89.5412V449.94L210.571 567.601V460.715L109.735 400.289L109.703 400.266L109.661 400.244C109.321 400.034 109.034 399.733 108.717 399.479C108.441 399.245 108.124 399.06 107.884 398.804L107.863 398.77C107.578 398.48 107.38 398.12 107.14 397.796C106.919 397.481 106.658 397.215 106.482 396.891L106.471 396.855C106.273 396.509 106.152 396.09 106.01 395.697C105.868 395.348 105.683 395.021 105.593 394.652V394.641C105.485 394.2 105.464 393.735 105.419 393.282C105.377 392.936 105.287 392.587 105.287 392.238V143.033L54.3957 111.987L17.5504 89.5547V89.5412ZM114.072 20.0095L26.3479 73.4762L114.051 126.941L201.762 73.4627L114.051 20.0095H114.072ZM159.692 353.68L210.581 322.661V89.5412L173.74 112.001L122.836 143.03V376.148L159.692 353.68V353.68ZM429.939 83.104L342.227 136.568L429.939 190.035L517.639 136.557L429.941 83.104H429.939ZM421.162 206.125L370.262 175.093L333.419 152.636V258.476L384.308 289.496L421.164 311.965V206.125H421.162ZM219.336 444.639L347.99 366.869L412.301 328.008L324.653 274.577L223.739 336.092L131.765 392.157L219.336 444.639Z" fill="#FF2D20"/>
</svg>
