<svg width="357" height="341" viewBox="0 0 357 341" fill="none" xmlns="http://www.w3.org/2000/svg">
<path fill-rule="evenodd" clip-rule="evenodd" d="M4.41479e-06 28.489C4.41479e-06 20.9333 3.14235 13.687 8.73576 8.34427C14.3292 3.00155 21.9155 3.79799e-05 29.8257 3.79799e-05H327.142C331.062 -0.00607757 334.945 0.726413 338.568 2.15557C342.191 3.58473 345.484 5.68249 348.258 8.32875C351.031 10.975 353.231 14.1178 354.731 17.5772C356.231 21.0366 357.002 24.7446 357 28.489V312.48C357.004 316.225 356.235 319.934 354.737 323.395C353.239 326.856 351.042 330.001 348.27 332.65C345.498 335.299 342.207 337.4 338.584 338.833C334.962 340.266 331.079 341.002 327.158 341H29.8257C25.9076 341 22.0279 340.263 18.4082 338.83C14.7885 337.397 11.4998 335.297 8.73002 332.65C5.96023 330.003 3.76362 326.861 2.26569 323.403C0.767765 319.944 -0.00212732 316.238 4.41479e-06 312.496V28.489ZM141.307 130.014H189.648V153.202C196.626 139.872 214.476 127.875 241.3 127.875C292.724 127.875 304.91 154.427 304.91 203.143V293.384H252.87V214.241C252.87 186.496 245.892 170.841 228.172 170.841C203.587 170.841 193.364 187.721 193.364 214.241V293.384H141.307V130.014ZM52.0571 291.261H104.114V127.875H52.0571V291.245V291.261ZM111.562 74.586C111.661 78.8435 110.868 83.0767 109.23 87.0374C107.592 90.9981 105.142 94.6064 102.025 97.6505C98.907 100.695 95.1843 103.113 91.0748 104.765C86.9654 106.416 82.552 107.267 78.0938 107.267C73.6355 107.267 69.2221 106.416 65.1127 104.765C61.0032 103.113 57.2805 100.695 54.1629 97.6505C51.0453 94.6064 48.5957 90.9981 46.9578 87.0374C45.32 83.0767 44.5269 78.8435 44.625 74.586C44.8177 66.2293 48.4284 58.2768 54.6841 52.4317C60.9397 46.5865 69.3428 43.3135 78.0938 43.3135C86.8447 43.3135 95.2478 46.5865 101.503 52.4317C107.759 58.2768 111.37 66.2293 111.562 74.586Z" fill="white"/>
</svg>
