<svg width="81" height="60" viewBox="0 0 81 60" fill="none" xmlns="http://www.w3.org/2000/svg">
<g clip-path="url(#clip0_1419_7376)">
<mask id="mask0_1419_7376" style="mask-type:luminance" maskUnits="userSpaceOnUse" x="2" y="10" width="77" height="40">
<path d="M2.11084 29.9999C2.11084 40.9931 19.2986 49.905 40.5 49.905C61.7013 49.905 78.8893 40.9931 78.8893 29.9999C78.8893 19.0069 61.7013 10.0948 40.5 10.0948C19.2986 10.0948 2.11084 19.0069 2.11084 29.9999Z" fill="white"/>
</mask>
<g mask="url(#mask0_1419_7376)">
<path d="M2.11084 29.9999C2.11084 40.9931 19.2986 49.905 40.5 49.905C61.7013 49.905 78.8893 40.9931 78.8893 29.9999C78.8893 19.0069 61.7013 10.0948 40.5 10.0948C19.2986 10.0948 2.11084 19.0069 2.11084 29.9999Z" fill="url(#paint0_radial_1419_7376)"/>
</g>
<mask id="mask1_1419_7376" style="mask-type:luminance" maskUnits="userSpaceOnUse" x="0" y="7" width="81" height="46">
<path d="M0.511292 7.82828H80.4887V52.1716H0.511292V7.82828Z" fill="white"/>
</mask>
<g mask="url(#mask1_1419_7376)">
<path d="M40.5 48.4272C60.8732 48.4272 77.3895 40.1771 77.3895 30C77.3895 19.823 60.8732 11.5727 40.5 11.5727C20.1267 11.5727 3.61041 19.823 3.61041 30C3.61041 40.1771 20.1267 48.4272 40.5 48.4272Z" fill="#777BB3"/>
</g>
<mask id="mask2_1419_7376" style="mask-type:luminance" maskUnits="userSpaceOnUse" x="0" y="7" width="81" height="46">
<path d="M0.511292 7.82828H80.4887V52.1716H0.511292V7.82828Z" fill="white"/>
</mask>
<g mask="url(#mask2_1419_7376)">
<path d="M22.9681 32.2847C24.6433 32.2847 25.8939 31.9802 26.6852 31.3799C27.468 30.7858 28.0087 29.7565 28.2921 28.3206C28.5563 26.9786 28.4557 26.0415 27.993 25.5358C27.52 25.0192 26.4972 24.7573 24.9532 24.7573H22.276L20.7919 32.2847H22.9681ZM14.2118 41.5571C14.0875 41.5571 13.9695 41.5024 13.8905 41.4077C13.8113 41.3131 13.7793 41.1886 13.803 41.0683L17.7363 21.1205C17.7744 20.9276 17.9459 20.7883 18.1453 20.7883H26.6226C29.2868 20.7883 31.2699 21.5013 32.5163 22.9079C33.7694 24.3218 34.1564 26.2982 33.6664 28.7821C33.467 29.7941 33.1241 30.7339 32.6471 31.5754C32.1696 32.4177 31.5385 33.1972 30.7711 33.8924C29.8525 34.7399 28.8128 35.3544 27.6837 35.716C26.5725 36.0728 25.1454 36.2537 23.4421 36.2537H20.0094L19.0292 41.2248C18.9911 41.4178 18.8198 41.5571 18.6204 41.5571H14.2118Z" fill="black"/>
<path d="M22.6194 25.1677H24.9532C26.8167 25.1677 27.464 25.5708 27.684 25.8109C28.0488 26.2098 28.1177 27.0506 27.8832 28.2426C27.6197 29.577 27.1312 30.5231 26.4311 31.0544C25.7144 31.5983 24.5491 31.8739 22.9681 31.8739H21.2971L22.6194 25.1677ZM26.6226 20.3775H18.1451C17.7463 20.3775 17.4035 20.6562 17.3274 21.042L13.3941 40.9898C13.3466 41.2305 13.4108 41.4795 13.5689 41.6688C13.7272 41.858 13.963 41.9675 14.2118 41.9675H18.6203C19.0192 41.9675 19.362 41.6889 19.4381 41.3031L20.3528 36.6641H23.4421C25.1891 36.6641 26.6598 36.4763 27.8129 36.1061C28.9989 35.7263 30.0899 35.0824 31.0556 34.1923C31.8543 33.468 32.5122 32.655 33.0106 31.7757C33.5092 30.8961 33.8675 29.9152 34.0753 28.8602C34.5912 26.2456 34.1721 24.1519 32.83 22.6377C31.5009 21.1379 29.4124 20.3775 26.6226 20.3775ZM20.2865 32.6951H22.9681C24.7455 32.6951 26.0694 32.3651 26.9393 31.7051C27.8093 31.0448 28.3961 29.943 28.701 28.3989C28.9928 26.9164 28.8599 25.8702 28.3024 25.2608C27.7442 24.6513 26.628 24.3465 24.9532 24.3465H21.9327L20.2865 32.6951ZM26.6226 21.1987C29.1728 21.1987 31.0333 21.8584 32.2027 23.1779C33.3719 24.4973 33.724 26.3391 33.2575 28.7037C33.0655 29.6777 32.7407 30.5683 32.2835 31.3751C31.8257 32.1824 31.228 32.9207 30.4893 33.5901C29.609 34.4021 28.631 34.9807 27.555 35.3253C26.4789 35.6709 25.1083 35.8429 23.4421 35.8429H19.6659L18.6203 41.1464H14.2118L18.1451 21.1987H26.6226Z" fill="white"/>
<path d="M43.7744 36.2537C43.65 36.2537 43.5322 36.1989 43.4531 36.1042C43.3739 36.0096 43.3418 35.8852 43.3655 35.7648L45.1055 26.9387C45.271 26.0993 45.2301 25.4968 44.9906 25.2423C44.844 25.0867 44.4036 24.8257 43.1013 24.8257H39.9491L37.7616 35.9214C37.7235 36.1143 37.552 36.2537 37.3527 36.2537H32.9789C32.8545 36.2537 32.7366 36.1989 32.6575 36.1042C32.5783 36.0096 32.5462 35.8851 32.57 35.7648L36.5033 15.817C36.5414 15.6241 36.7128 15.4848 36.9122 15.4848H41.286C41.4104 15.4848 41.5283 15.5396 41.6074 15.6341C41.6866 15.7288 41.7186 15.8533 41.6949 15.9737L40.7457 20.7882H44.1367C46.72 20.7882 48.4717 21.2371 49.492 22.1607C50.532 23.1028 50.8565 24.6093 50.4566 26.6387L48.6265 35.9214C48.5885 36.1143 48.4172 36.2537 48.2176 36.2537H43.7744Z" fill="black"/>
<path d="M41.286 15.074H36.9122C36.5133 15.074 36.1705 15.3527 36.0944 15.7385L32.1611 35.6863C32.1136 35.9271 32.1777 36.176 32.336 36.3653C32.4943 36.5546 32.7301 36.6641 32.9789 36.6641H37.3527C37.7514 36.6641 38.0944 36.3854 38.1705 35.9996L40.2925 25.2361H43.1013C44.4014 25.2361 44.6742 25.5098 44.6852 25.5216C44.764 25.6052 44.8678 25.9925 44.6966 26.8602L42.9566 35.6863C42.9091 35.9271 42.9733 36.176 43.1316 36.3653C43.2899 36.5546 43.5256 36.6641 43.7745 36.6641H48.2176C48.6164 36.6641 48.9594 36.3854 49.0355 35.9996L50.8654 26.7169C51.2948 24.5379 50.9274 22.9034 49.7739 21.8583C48.6731 20.8618 46.8291 20.3775 44.1367 20.3775H41.2509L42.1038 16.0519C42.1512 15.8112 42.0872 15.5621 41.9289 15.373C41.7706 15.1837 41.5348 15.074 41.286 15.074ZM41.286 15.8952L40.2403 21.1986H44.1367C46.5884 21.1986 48.2794 21.6204 49.2101 22.463C50.1408 23.306 50.4197 24.6721 50.0477 26.5603L48.2176 35.8429H43.7745L45.5144 27.0169C45.7124 26.0129 45.6396 25.328 45.2958 24.9629C44.9519 24.5977 44.2203 24.4149 43.1013 24.4149H39.6056L37.3527 35.8429H32.9789L36.9122 15.8952H41.286Z" fill="white"/>
<path d="M57.3771 32.2847C59.0523 32.2847 60.3029 31.9802 61.0942 31.3799C61.8771 30.7859 62.4178 29.7566 62.7013 28.3206C62.9655 26.9786 62.8648 26.0415 62.4021 25.5358C61.929 25.0192 60.9062 24.7573 59.3622 24.7573H56.6851L55.2009 32.2847H57.3771ZM48.621 41.5571C48.4967 41.5571 48.3787 41.5024 48.2997 41.4077C48.2205 41.3131 48.1883 41.1886 48.2121 41.0683L52.1454 21.1205C52.1836 20.9276 52.3549 20.7883 52.5544 20.7883H61.0316C63.696 20.7883 65.6789 21.5013 66.9255 22.9079C68.1786 24.3217 68.5655 26.2981 68.0756 28.7821C67.8759 29.7941 67.5331 30.7339 67.0562 31.5754C66.5787 32.4177 65.9476 33.1972 65.1802 33.8924C64.2615 34.7399 63.2218 35.3544 62.0927 35.716C60.9815 36.0728 59.5544 36.2537 57.8511 36.2537H54.4184L53.4385 41.2248C53.4003 41.4178 53.229 41.5571 53.0294 41.5571H48.621Z" fill="black"/>
<path d="M57.0285 25.1677H59.3623C61.2258 25.1677 61.8731 25.5708 62.0931 25.8109C62.4581 26.2098 62.527 27.0506 62.2923 28.2424C62.0288 29.577 61.5402 30.5231 60.8402 31.0544C60.1235 31.5983 58.9582 31.8739 57.3772 31.8739H55.7064L57.0285 25.1677ZM61.0317 20.3775H52.5544C52.1556 20.3775 51.8128 20.6562 51.7367 21.042L47.8033 40.9898C47.7559 41.2305 47.82 41.4795 47.9782 41.6688C48.1364 41.858 48.3722 41.9675 48.621 41.9675H53.0295C53.4283 41.9675 53.7712 41.6889 53.8473 41.3031L54.7619 36.6641H57.8512C59.5982 36.6641 61.0689 36.4763 62.222 36.1061C63.408 35.7263 64.4993 35.0823 65.465 34.192C66.2637 33.4678 66.9213 32.655 67.4197 31.7757C67.9183 30.8961 68.2766 29.9152 68.4844 28.8602C69.0003 26.2455 68.5812 24.1518 67.2391 22.6375C65.91 21.1379 63.8216 20.3775 61.0317 20.3775ZM54.6957 32.6951H57.3772C59.1546 32.6951 60.4785 32.3651 61.3484 31.7051C62.2186 31.0448 62.8052 29.943 63.1101 28.3989C63.402 26.9164 63.2691 25.8702 62.7115 25.2608C62.1533 24.6513 61.0371 24.3465 59.3623 24.3465H56.3418L54.6957 32.6951ZM61.0317 21.1987C63.5819 21.1987 65.4424 21.8584 66.6118 23.1779C67.7812 24.4973 68.1332 26.3391 67.6666 28.7037C67.4746 29.6777 67.1498 30.5683 66.6926 31.3751C66.2348 32.1824 65.6371 32.9207 64.8984 33.5901C64.0181 34.4021 63.0401 34.9807 61.9641 35.3253C60.888 35.6709 59.5174 35.8429 57.8512 35.8429H54.075L53.0295 41.1464H48.621L52.5544 21.1987H61.0317Z" fill="white"/>
</g>
</g>
<defs>
<radialGradient id="paint0_radial_1419_7376" cx="0" cy="0" r="1" gradientUnits="userSpaceOnUse" gradientTransform="translate(25.1599 17.0928) scale(50.4104 49.6889)">
<stop stop-color="#AEB2D5"/>
<stop offset="0.3" stop-color="#AEB2D5"/>
<stop offset="0.75" stop-color="#484C89"/>
<stop offset="1" stop-color="#484C89"/>
</radialGradient>
<clipPath id="clip0_1419_7376">
<rect width="79.9774" height="60" fill="white" transform="translate(0.511292)"/>
</clipPath>
</defs>
</svg>
