<svg width="341" height="341" viewBox="0 0 341 341" fill="none" xmlns="http://www.w3.org/2000/svg">
<path d="M335.927 70.1485C324.063 75.4056 311.318 78.9576 297.92 80.5632C311.744 72.291 322.087 59.2715 327.018 43.9341C314.03 51.6491 299.814 57.0796 284.99 59.9895C275.021 49.3456 261.817 42.2906 247.428 39.9199C233.039 37.5492 218.269 39.9954 205.413 46.8788C192.556 53.7622 182.332 64.6976 176.327 77.9873C170.322 91.2769 168.873 106.177 172.204 120.375C145.886 119.054 120.14 112.213 96.6362 100.297C73.1327 88.3815 52.3974 71.6569 35.7759 51.2088C30.0925 61.0125 26.8246 72.3792 26.8246 84.4847C26.8183 95.3824 29.5019 106.113 34.6375 115.725C39.773 125.337 47.2017 133.532 56.2643 139.585C45.7541 139.25 35.4757 136.41 26.2847 131.301V132.154C26.2837 147.438 31.5707 162.252 41.2487 174.082C50.9267 185.913 64.3996 194.03 79.3813 197.057C69.6313 199.696 59.4091 200.085 49.4869 198.194C53.7139 211.345 61.9476 222.846 73.0353 231.085C84.1231 239.325 97.5099 243.891 111.322 244.144C87.8755 262.549 58.9197 272.533 29.1122 272.489C23.8321 272.491 18.5565 272.182 13.3125 271.566C43.5688 291.02 78.7893 301.344 114.76 301.304C236.525 301.304 303.091 200.453 303.091 112.987C303.091 110.145 303.02 107.275 302.893 104.433C315.841 95.0695 327.017 83.4744 335.899 70.1911L335.927 70.1485V70.1485Z" fill="#363636"/>
</svg>
