<svg width="1908" height="1636" viewBox="0 0 1908 1636" fill="none" xmlns="http://www.w3.org/2000/svg">
<g clip-path="url(#clip0_695_48)">
<path d="M629.723 758.59C629.723 719.693 596.437 678.383 538.843 678.383C474.165 678.383 403.114 732.3 392.255 839.864C381.161 948.503 440.644 996.788 500.601 996.788C560.561 996.788 591.954 970.231 624.058 934.824C596.437 895.39 560.796 913.633 553.95 917.656C546.397 921.946 536.719 927.85 516.89 927.85C493.755 927.85 470.151 916.047 470.151 866.958C618.394 850.328 629.723 797.482 629.723 758.59V758.59ZM556.309 765.027C555.366 777.096 551.118 797.753 476.054 809.284C491.87 745.445 522.081 740.617 536.011 740.617C548.994 740.617 557.252 752.149 556.309 765.027V765.027ZM305.15 775.487C305.15 775.487 273.288 889.22 270.687 898.608C269.744 888.953 246.375 684.82 246.375 684.82C192.083 684.82 163.049 728.811 147.707 775.22C147.707 775.22 108.991 889.22 105.69 898.875C105.451 890.025 99.7867 776.562 99.7867 776.562C96.4813 719.689 50.6893 685.091 13.6286 685.091L58.4778 994.374C115.367 994.107 146.052 950.383 162.106 903.974C162.106 903.974 196.331 803.385 197.747 798.824C197.985 803.114 222.297 994.374 222.297 994.374C279.422 994.374 310.11 953.33 326.634 908.535L406.654 685.091C350.234 685.091 320.496 728.811 305.15 775.487ZM839.334 677.845C804.163 677.845 777.253 699.574 754.592 731.496V731.229L774.895 545.335C728.156 545.335 690.153 591.473 682.834 660.14L647.424 991.96C674.337 991.96 702.897 983.109 718.24 960.576C731.931 980.691 752.468 996.788 782.918 996.788C861.761 996.788 915.815 892.709 915.815 795.068C915.345 706.011 877.338 677.85 839.334 677.85V677.845ZM832.019 837.454C823.757 891.905 797.083 928.925 771.351 928.925C745.388 928.925 734.294 915.776 734.294 915.776C739.25 868.029 742.317 838.792 751.76 813.578C761.203 788.365 783.626 748.126 806.995 748.126C829.891 748.126 840.281 782.728 832.019 837.45V837.454ZM1112.68 685.083H1057.68L1057.92 681.864C1061.69 641.092 1070.19 619.634 1098.28 616.149C1117.4 614.002 1125.9 602.733 1128.02 590.397C1129.68 580.742 1134.87 547.207 1134.87 547.207C1024.4 546.402 989.701 600.59 980.731 683.207L980.493 685.087H979.311C961.372 685.087 941.546 708.154 938.241 737.391L937.06 748.121H973.886L942.963 1038.36L933.519 1090.4C934.701 1090.4 936.117 1090.67 937.294 1090.67C988.993 1088.52 1022.04 1042.12 1029.36 974.788L1053.43 748.121H1070.66C1087.66 748.121 1107.49 728.811 1111.03 696.618L1112.68 685.087V685.083ZM1398.78 679.721C1335.28 679.721 1275.32 732.834 1256.91 816.255C1238.5 899.68 1266.35 998.392 1359.83 998.392C1453.07 998.392 1506.89 895.657 1506.89 810.085C1506.89 725.05 1456.14 679.721 1398.78 679.721ZM1424.51 834.765C1421.2 872.586 1406.57 929.992 1366.44 929.992C1326.07 929.992 1331.74 862.93 1335.75 831.009C1340 796.944 1356.76 748.388 1392.88 748.388C1425.21 748.388 1428.28 792.112 1424.51 834.765ZM1820.6 775.482C1820.6 775.482 1788.73 889.216 1786.13 898.604C1785.19 888.949 1761.82 684.816 1761.82 684.816C1707.53 684.816 1678.5 728.807 1663.15 775.216C1663.15 775.216 1624.44 889.216 1621.14 898.871C1620.9 890.02 1615.23 776.558 1615.23 776.558C1611.93 719.685 1566.14 685.087 1529.08 685.087L1573.69 994.369C1630.58 994.103 1661.26 950.379 1677.32 903.97C1677.32 903.97 1711.54 803.381 1712.73 798.82C1712.96 803.11 1737.27 994.369 1737.27 994.369C1794.4 994.369 1825.08 953.326 1841.61 908.531L1921.63 685.091C1865.45 685.091 1835.71 728.811 1820.6 775.487V775.482ZM1164.61 547.211L1118.35 971.303L1108.91 1023.61C1110.08 1023.61 1111.5 1023.88 1112.68 1023.88C1162.49 1023.08 1197.9 973.45 1204.5 910.949L1231.18 667.652C1239.21 593.349 1200.26 547.215 1164.61 547.215V547.211Z" fill="#4353FF"/>
</g>
<defs>
<clipPath id="clip0_695_48">
<rect width="1908" height="1636" fill="white"/>
</clipPath>
</defs>
</svg>
