<svg width="495" height="594" viewBox="0 0 495 594" fill="none" xmlns="http://www.w3.org/2000/svg">
<path d="M55.2496 534.621L12.4893 0H482.511L439.693 534.536L247.214 594L55.2496 534.621Z" fill="#1572B6"/>
<path d="M247.5 548.559L403.044 500.509L439.636 43.7227H247.5V548.559Z" fill="#33A9DC"/>
<path d="M247.5 237.409H325.367L330.736 170.266H247.5V104.692H395.048L393.639 122.279L379.189 302.982H247.5V237.409V237.409Z" fill="white"/>
<path d="M247.862 407.696L247.595 407.781L182.065 388.052L177.876 335.758H118.8L127.044 438.711L247.576 476.006L247.862 475.921V407.696V407.696Z" fill="#EBEBEB"/>
<path d="M320.36 300.203L313.278 388.009L247.652 407.738V475.964L368.28 438.711L369.175 427.637L379.398 300.203H320.36V300.203Z" fill="white"/>
<path d="M247.71 104.692V170.266H105.568L104.388 155.522L101.704 122.279L100.295 104.692H247.71V104.692ZM247.5 237.409V302.982H182.788L181.608 288.238L178.943 254.996L177.534 237.409H247.5V237.409Z" fill="#EBEBEB"/>
</svg>
