<svg width="446" height="594" viewBox="0 0 446 594" fill="none" xmlns="http://www.w3.org/2000/svg">
<path d="M111.5 594C173.048 594 223 549.648 223 495V396H111.5C49.952 396 0 440.352 0 495C0 549.648 49.952 594 111.5 594Z" fill="#0ACF83"/>
<path d="M0 297C0 242.352 49.952 198 111.5 198H223V396H111.5C49.952 396 0 351.648 0 297Z" fill="#A259FF"/>
<path d="M0 99C0 44.352 49.952 0 111.5 0H223V198H111.5C49.952 198 0 153.648 0 99Z" fill="#F24E1E"/>
<path d="M223 0H334.5C396.048 0 446 44.352 446 99C446 153.648 396.048 198 334.5 198H223V0Z" fill="#FF7262"/>
<path d="M446 297C446 351.648 396.048 396 334.5 396C272.952 396 223 351.648 223 297C223 242.352 272.952 198 334.5 198C396.048 198 446 242.352 446 297Z" fill="#1ABCFE"/>
</svg>
