<svg width="1615" height="566" viewBox="0 0 1615 566" fill="none" xmlns="http://www.w3.org/2000/svg">
<path d="M210.586 338.32C225.52 338.32 242.906 324.987 262.746 298.32C269.786 257.573 274.906 232.08 278.106 221.84C284.72 199.44 293.893 188.24 305.626 188.24C313.306 188.24 317.146 192.827 317.146 202C317.146 207.12 315.973 213.52 313.626 221.2C307.866 240.827 297.306 262.373 281.946 285.84C275.973 334.907 267.866 372.027 257.626 397.2C246.746 423.867 233.52 443.493 217.946 456.08C209.413 463.12 199.066 468.88 186.906 473.36C174.746 477.84 161.413 480.08 146.906 480.08C115.12 480.08 92.8263 469.093 80.0263 447.12C73.8396 436.453 70.7463 426.213 70.7463 416.4C70.7463 406.8 71.9196 398.16 74.2663 390.48C79.8129 371.28 90.3729 357.733 105.946 349.84C113.413 346.213 121.413 344.4 129.946 344.4C152.56 344.4 168.026 353.147 176.346 370.64C179.973 378.32 181.786 385.68 181.786 392.72C181.786 399.76 180.506 406.48 177.946 412.88C172.4 427.6 163.333 434.96 150.746 434.96C148.826 434.96 147.12 434.427 145.626 433.36C144.133 432.293 142.96 430.8 142.106 428.88C151.706 428.88 159.173 422.373 164.506 409.36C167.066 402.96 168.346 396.453 168.346 389.84C168.346 383.44 166.853 376.827 163.866 370C158.106 356.987 146.48 350.48 128.986 350.48C111.493 350.48 97.7329 358.907 87.7063 375.76C80.8796 387.067 77.4663 398.907 77.4663 411.28C77.4663 416.4 78.1063 421.627 79.3863 426.96C83.8663 447.013 95.3863 460.56 113.946 467.6C122.266 470.8 131.76 472.4 142.426 472.4C153.306 472.4 163.44 470.693 172.826 467.28C182.426 464.08 190.746 459.813 197.786 454.48C205.04 449.147 211.653 442.32 217.626 434C223.6 425.68 228.613 417.253 232.666 408.72C236.933 400.187 240.88 390.267 244.506 378.96C249.84 361.467 254.96 340.027 259.866 314.64C240.88 335.76 224.56 346.32 210.906 346.32C184.453 346.32 171.226 332.027 171.226 303.44C171.226 291.493 173.573 278.053 178.266 263.12C183.173 248.187 188.4 234.747 193.946 222.8C199.706 210.64 204.933 196.88 209.626 181.52C214.533 165.947 216.986 151.333 216.986 137.68C216.986 124.027 213.04 113.04 205.146 104.72C197.253 96.4 186.373 92.24 172.506 92.24C151.173 92.24 133.786 103.12 120.346 124.88C109.893 142.16 104.666 160.4 104.666 179.6C104.666 203.92 111.813 219.387 126.106 226C130.373 227.92 134.96 228.88 139.866 228.88C156.293 228.88 168.773 219.707 177.306 201.36C177.733 200.507 178.373 200.08 179.226 200.08C180.293 199.867 181.146 200.08 181.786 200.72C182.64 201.36 182.853 202.107 182.426 202.96C178.373 212.987 172.72 221.093 165.466 227.28C158.213 233.253 149.68 236.24 139.866 236.24C120.666 236.24 107.653 226.533 100.826 207.12C98.0529 198.8 96.6663 189.413 96.6663 178.96C96.6663 168.507 98.9062 156.773 103.386 143.76C111.706 119.227 125.04 101.947 143.386 91.92C152.56 87.0133 162.266 84.56 172.506 84.56C192.133 84.56 207.173 91.28 217.626 104.72C228.08 117.947 233.306 135.547 233.306 157.52C233.306 173.52 229.786 191.547 222.746 211.6C215.92 231.44 208.986 250.533 201.946 268.88C195.12 287.227 191.706 302.373 191.706 314.32C191.706 330.32 198 338.32 210.586 338.32ZM304.026 198.48C298.693 198.48 294.746 203.707 292.186 214.16C289.626 224.613 286.96 241.68 284.186 265.36C299.546 238.267 307.546 218.427 308.186 205.84C308.186 201.147 306.8 198.693 304.026 198.48ZM377.781 322.96C382.688 322.96 385.141 326.267 385.141 332.88C385.141 339.493 381.941 344.827 375.541 348.88C372.341 351.013 369.568 352.08 367.221 352.08C363.808 352.08 361.675 350.693 360.821 347.92C362.741 347.92 364.128 345.893 364.981 341.84C365.835 337.573 367.115 333.413 368.821 329.36C370.741 325.093 373.728 322.96 377.781 322.96ZM620.352 338.32C635.285 338.32 652.672 324.987 672.512 298.32C679.552 257.573 684.672 232.08 687.872 221.84C694.485 199.44 703.659 188.24 715.392 188.24C723.072 188.24 726.912 192.827 726.912 202C726.912 207.12 725.739 213.52 723.392 221.2C717.632 240.827 707.072 262.373 691.712 285.84C685.739 334.907 677.632 372.027 667.392 397.2C656.512 423.867 643.285 443.493 627.712 456.08C619.179 463.12 608.832 468.88 596.672 473.36C584.512 477.84 571.179 480.08 556.672 480.08C524.885 480.08 502.592 469.093 489.792 447.12C483.605 436.453 480.512 426.213 480.512 416.4C480.512 406.8 481.685 398.16 484.032 390.48C489.579 371.28 500.139 357.733 515.712 349.84C523.179 346.213 531.179 344.4 539.712 344.4C562.325 344.4 577.792 353.147 586.112 370.64C589.739 378.32 591.552 385.68 591.552 392.72C591.552 399.76 590.272 406.48 587.712 412.88C582.165 427.6 573.099 434.96 560.512 434.96C558.592 434.96 556.885 434.427 555.392 433.36C553.899 432.293 552.725 430.8 551.872 428.88C561.472 428.88 568.939 422.373 574.272 409.36C576.832 402.96 578.112 396.453 578.112 389.84C578.112 383.44 576.619 376.827 573.632 370C567.872 356.987 556.245 350.48 538.752 350.48C521.259 350.48 507.499 358.907 497.472 375.76C490.645 387.067 487.232 398.907 487.232 411.28C487.232 416.4 487.872 421.627 489.152 426.96C493.632 447.013 505.152 460.56 523.712 467.6C532.032 470.8 541.525 472.4 552.192 472.4C563.072 472.4 573.205 470.693 582.592 467.28C592.192 464.08 600.512 459.813 607.552 454.48C614.805 449.147 621.419 442.32 627.392 434C633.365 425.68 638.379 417.253 642.432 408.72C646.699 400.187 650.645 390.267 654.272 378.96C659.605 361.467 664.725 340.027 669.632 314.64C650.645 335.76 634.325 346.32 620.672 346.32C594.219 346.32 580.992 332.027 580.992 303.44C580.992 291.493 583.339 278.053 588.032 263.12C592.939 248.187 598.165 234.747 603.712 222.8C609.472 210.64 614.699 196.88 619.392 181.52C624.299 165.947 626.752 151.333 626.752 137.68C626.752 124.027 622.805 113.04 614.912 104.72C607.019 96.4 596.139 92.24 582.272 92.24C560.939 92.24 543.552 103.12 530.112 124.88C519.659 142.16 514.432 160.4 514.432 179.6C514.432 203.92 521.579 219.387 535.872 226C540.139 227.92 544.725 228.88 549.632 228.88C566.059 228.88 578.539 219.707 587.072 201.36C587.499 200.507 588.139 200.08 588.992 200.08C590.059 199.867 590.912 200.08 591.552 200.72C592.405 201.36 592.619 202.107 592.192 202.96C588.139 212.987 582.485 221.093 575.232 227.28C567.979 233.253 559.445 236.24 549.632 236.24C530.432 236.24 517.419 226.533 510.592 207.12C507.819 198.8 506.432 189.413 506.432 178.96C506.432 168.507 508.672 156.773 513.152 143.76C521.472 119.227 534.805 101.947 553.152 91.92C562.325 87.0133 572.032 84.56 582.272 84.56C601.899 84.56 616.939 91.28 627.392 104.72C637.845 117.947 643.072 135.547 643.072 157.52C643.072 173.52 639.552 191.547 632.512 211.6C625.685 231.44 618.752 250.533 611.712 268.88C604.885 287.227 601.472 302.373 601.472 314.32C601.472 330.32 607.765 338.32 620.352 338.32ZM713.792 198.48C708.459 198.48 704.512 203.707 701.952 214.16C699.392 224.613 696.725 241.68 693.952 265.36C709.312 238.267 717.312 218.427 717.952 205.84C717.952 201.147 716.565 198.693 713.792 198.48ZM764.507 346.32C747.654 346.32 739.227 333.627 739.227 308.24C739.227 293.52 743.067 277.413 750.747 259.92C761.414 236.24 774.96 220.773 791.387 213.52C797.147 211.173 802.907 210 808.667 210C814.64 210 819.334 211.707 822.747 215.12C826.16 218.533 827.867 222.373 827.867 226.64C827.867 228.56 826.8 229.52 824.667 229.52C822.747 229.307 821.787 228.24 821.787 226.32C821.787 224.4 820.72 222.693 818.587 221.2C816.667 219.493 813.787 218.64 809.947 218.64C796.507 218.64 784.347 230.693 773.467 254.8C763.227 277.2 758.107 298.427 758.107 318.48C758.107 330.853 760.774 337.04 766.107 337.04C771.654 337.04 778.267 332.453 785.947 323.28C793.84 313.893 801.094 303.013 807.707 290.64C822 264.613 830.427 247.867 832.987 240.4C835.547 232.933 838.32 229.2 841.307 229.2C846.64 229.2 849.307 233.68 849.307 242.64C849.307 245.413 848.987 248.613 848.347 252.24C841.307 286.373 837.467 306.107 836.827 311.44C836.4 316.773 836.187 320.613 836.187 322.96C836.187 333.2 838.64 338.32 843.547 338.32C849.094 338.32 856.88 330.96 866.907 316.24C876.934 301.52 885.574 286.8 892.827 272.08L903.707 250H912.347C911.067 252.56 909.36 256.08 907.227 260.56C905.307 264.827 901.36 272.613 895.387 283.92C889.414 295.013 883.654 304.827 878.107 313.36C872.774 321.893 866.694 329.68 859.867 336.72C853.254 343.547 847.494 346.96 842.587 346.96C826.8 346.96 818.907 335.44 818.907 312.4C818.907 304.72 819.76 295.76 821.467 285.52H819.227C797.467 326.053 779.227 346.32 764.507 346.32ZM942.563 175.12H943.203C945.123 175.333 946.616 176.187 947.683 177.68C948.75 179.173 949.283 180.773 949.283 182.48C949.283 183.973 947.79 187.28 944.803 192.4C942.03 197.52 940.643 201.68 940.643 204.88C940.643 207.867 941.07 210.747 941.923 213.52C942.776 216.08 945.443 222.48 949.923 232.72C959.736 255.12 964.643 275.173 964.643 292.88C964.643 310.373 959.843 324.88 950.243 336.4C940.856 347.92 929.55 353.68 916.323 353.68C903.31 353.68 896.803 345.787 896.803 330C896.803 314 902.456 296.933 913.763 278.8C920.376 268.347 927.523 260.453 935.203 255.12C937.336 253.627 938.723 253.947 939.363 256.08C940.216 258.213 939.79 259.92 938.083 261.2C925.71 270.16 916.11 284.347 909.283 303.76C903.096 321.253 902.456 333.413 907.363 340.24C909.07 342.8 911.523 344.08 914.723 344.08C924.11 344.08 931.47 337.787 936.803 325.2C942.136 312.613 944.803 296.933 944.803 278.16C944.803 261.947 942.883 246.907 939.043 233.04C935.203 219.173 933.07 211.173 932.643 209.04C926.243 221.2 919.31 234.853 911.843 250H903.203C915.363 225.893 924.75 207.76 931.363 195.6C932.216 181.947 935.95 175.12 942.563 175.12ZM999.966 346C993.992 346 991.006 341.413 991.006 332.24C991.006 327.333 996.979 291.6 1008.93 225.04C1009.57 220.56 1011.49 218.32 1014.69 218.32C1018.53 218.32 1021.41 221.093 1023.33 226.64C1024.39 229.627 1024.93 232.933 1024.93 236.56C1024.93 239.973 1024.5 243.707 1023.65 247.76L1018.85 272.08H1020.77C1039.54 229.84 1057.67 208.72 1075.17 208.72C1081.14 208.72 1085.83 210.853 1089.25 215.12C1092.87 219.387 1094.69 224.507 1094.69 230.48C1094.69 241.573 1092.98 255.44 1089.57 272.08H1090.85C1108.98 232.613 1126.79 212.88 1144.29 212.88C1150.05 212.88 1154.74 215.013 1158.37 219.28C1161.99 223.547 1163.81 229.2 1163.81 236.24C1163.81 243.28 1161.03 258.213 1155.49 281.04C1150.15 303.867 1147.49 319.973 1147.49 329.36C1147.49 343.227 1150.05 350.16 1155.17 350.16C1155.17 351.653 1154.21 353.147 1152.29 354.64C1150.37 356.133 1148.13 356.88 1145.57 356.88C1133.19 356.88 1127.01 347.173 1127.01 327.76C1127.01 315.6 1130.1 298.107 1136.29 275.28C1142.47 252.24 1145.57 237.52 1145.57 231.12C1145.57 224.507 1143.43 221.2 1139.17 221.2C1131.27 221.2 1121.99 230.8 1111.33 250C1100.87 268.987 1092.45 287.227 1086.05 304.72C1079.86 322.213 1076.23 333.52 1075.17 338.64C1074.1 343.547 1072.18 346 1069.41 346C1063.43 346 1060.45 341.413 1060.45 332.24C1060.45 328.827 1062.26 316.773 1065.89 296.08C1072.93 258.107 1076.45 235.493 1076.45 228.24C1076.45 220.773 1074.31 217.04 1070.05 217.04C1064.29 217.04 1057.57 223.013 1049.89 234.96C1042.21 246.693 1035.27 260.347 1029.09 275.92C1015.65 308.773 1007.75 330 1005.41 339.6C1004.55 343.867 1002.74 346 999.966 346ZM1236.27 154.32C1241.18 154.32 1243.63 157.627 1243.63 164.24C1243.63 170.853 1240.43 176.187 1234.03 180.24C1230.83 182.373 1228.06 183.44 1225.71 183.44C1222.3 183.44 1220.27 182.373 1219.63 180.24L1219.31 179.28C1221.23 179.28 1222.62 177.253 1223.47 173.2C1224.32 168.933 1225.6 164.773 1227.31 160.72C1229.23 156.453 1232.22 154.32 1236.27 154.32ZM1215.79 338.32C1221.34 338.32 1229.12 330.96 1239.15 316.24C1249.18 301.52 1257.82 286.8 1265.07 272.08L1275.95 250H1284.59C1283.31 252.56 1281.6 256.08 1279.47 260.56C1277.55 264.827 1273.6 272.613 1267.63 283.92C1261.66 295.013 1255.9 304.827 1250.35 313.36C1245.02 321.893 1238.94 329.68 1232.11 336.72C1225.5 343.547 1219.74 346.96 1214.83 346.96C1199.04 346.96 1191.15 336.72 1191.15 316.24C1191.15 300.88 1195.52 275.92 1204.27 241.36C1205.12 237.733 1205.76 234.96 1206.19 233.04C1206.83 231.12 1207.47 228.667 1208.11 225.68C1208.75 222.48 1209.39 219.6 1210.03 217.04C1211.1 212.56 1213.02 210.32 1215.79 210.32C1219.63 210.32 1222.4 213.093 1224.11 218.64C1224.96 221.2 1225.39 224.293 1225.39 227.92C1225.39 231.547 1224.96 235.387 1224.11 239.44C1223.26 243.28 1221.87 249.04 1219.95 256.72C1218.03 264.4 1216.54 270.693 1215.47 275.6C1214.4 280.507 1213.23 286.48 1211.95 293.52C1209.6 305.253 1208.43 315.707 1208.43 324.88C1208.43 333.84 1210.88 338.32 1215.79 338.32ZM1270.67 346C1264.7 346 1261.71 341.413 1261.71 332.24C1261.71 327.333 1267.68 291.6 1279.63 225.04C1280.27 220.56 1282.19 218.32 1285.39 218.32C1289.23 218.32 1292.11 221.093 1294.03 226.64C1295.1 229.627 1295.63 232.933 1295.63 236.56C1295.63 239.973 1295.2 243.707 1294.35 247.76L1289.23 273.36H1291.15C1310.35 230.267 1328.7 208.72 1346.19 208.72C1353.02 208.72 1358.24 210.853 1361.87 215.12C1365.5 219.173 1367.31 224.827 1367.31 232.08C1367.31 239.333 1364.43 255.013 1358.67 279.12C1352.91 303.227 1350.03 319.973 1350.03 329.36C1350.03 343.227 1352.59 350.16 1357.71 350.16C1357.71 351.653 1356.75 353.147 1354.83 354.64C1352.91 356.133 1350.67 356.88 1348.11 356.88C1335.74 356.88 1329.55 347.173 1329.55 327.76C1329.55 315.813 1332.75 297.787 1339.15 273.68C1345.76 249.36 1349.07 233.893 1349.07 227.28C1349.07 220.453 1346.4 217.04 1341.07 217.04C1333.39 217.04 1324.11 227.067 1313.23 247.12C1302.56 267.173 1293.92 286.373 1287.31 304.72C1280.91 322.853 1277.18 334.267 1276.11 338.96C1275.26 343.653 1273.44 346 1270.67 346ZM1413.55 299.28C1413.55 325.093 1422.72 338 1441.07 338C1447.89 338 1455.04 335.013 1462.51 329.04C1470.19 322.853 1477.12 315.493 1483.31 306.96C1496.96 287.333 1506.56 271.333 1512.11 258.96L1516.27 250H1524.91C1521.28 258.533 1515.95 269.093 1508.91 281.68C1501.87 294.053 1495.15 304.507 1488.75 313.04C1482.35 321.573 1474.77 329.36 1466.03 336.4C1457.28 343.227 1448.96 346.64 1441.07 346.64C1409.49 346.64 1393.71 328.933 1393.71 293.52C1393.71 277.093 1398.51 260.667 1408.11 244.24C1421.33 221.413 1437.65 210 1457.07 210C1470.72 210 1477.55 217.467 1477.55 232.4C1477.55 243.493 1473.28 255.013 1464.75 266.96C1452.8 283.173 1438.83 291.387 1422.83 291.6C1420.48 291.6 1418.99 290.533 1418.35 288.4L1418.03 287.12C1429.12 287.12 1439.68 279.867 1449.71 265.36C1459.95 250.64 1465.07 238.373 1465.07 228.56C1465.07 221.947 1462.51 218.64 1457.39 218.64C1446.08 218.64 1435.52 228.56 1425.71 248.4C1417.6 265.253 1413.55 282.213 1413.55 299.28Z" fill="#363636"/>
<path d="M262.746 298.32L270.769 304.289L272.194 302.374L272.6 300.023L262.746 298.32ZM278.106 221.84L287.651 224.823L287.675 224.747L287.697 224.672L278.106 221.84ZM313.626 221.2L304.063 218.278L304.047 218.331L304.031 218.384L313.626 221.2ZM281.946 285.84L273.579 280.363L272.301 282.316L272.02 284.632L281.946 285.84ZM257.626 397.2L266.885 400.978L266.889 400.968L257.626 397.2ZM217.946 456.08L211.66 448.303L211.621 448.334L211.582 448.366L217.946 456.08ZM186.906 473.36L190.363 482.743L190.363 482.743L186.906 473.36ZM80.0263 447.12L71.3759 452.137L71.3807 452.145L71.3854 452.153L80.0263 447.12ZM74.2663 390.48L83.8298 393.402L83.8521 393.329L83.8734 393.255L74.2663 390.48ZM105.946 349.84L101.577 340.845L101.501 340.882L101.425 340.92L105.946 349.84ZM176.346 370.64L185.389 366.37L185.383 366.357L185.377 366.345L176.346 370.64ZM177.946 412.88L168.661 409.166L168.624 409.26L168.589 409.354L177.946 412.88ZM145.626 433.36L139.814 441.497L139.814 441.497L145.626 433.36ZM142.106 428.88V418.88H126.719L132.968 432.941L142.106 428.88ZM164.506 409.36L173.759 413.152L173.775 413.113L173.791 413.074L164.506 409.36ZM163.866 370L173.028 365.992L173.019 365.972L173.011 365.953L163.866 370ZM87.7063 375.76L96.2669 380.929L96.2837 380.901L96.3003 380.873L87.7063 375.76ZM79.3863 426.96L89.1457 424.78L89.1285 424.703L89.1101 424.626L79.3863 426.96ZM113.946 467.6L117.536 458.267L117.514 458.258L117.493 458.25L113.946 467.6ZM172.826 467.28L169.664 457.793L169.536 457.836L169.409 457.882L172.826 467.28ZM197.786 454.48L191.862 446.423L191.805 446.466L191.748 446.509L197.786 454.48ZM217.626 434L225.749 439.832L225.749 439.832L217.626 434ZM232.666 408.72L223.722 404.248L223.677 404.338L223.633 404.429L232.666 408.72ZM244.506 378.96L254.028 382.014L254.05 381.945L254.072 381.876L244.506 378.96ZM259.866 314.64L269.685 316.538L276.524 281.153L252.43 307.955L259.866 314.64ZM178.266 263.12L168.766 259.998L168.746 260.06L168.726 260.122L178.266 263.12ZM193.946 222.8L184.909 218.519L184.892 218.554L184.876 218.589L193.946 222.8ZM209.626 181.52L200.088 178.515L200.075 178.556L200.063 178.598L209.626 181.52ZM205.146 104.72L197.892 111.603L197.892 111.603L205.146 104.72ZM120.346 124.88L111.838 119.625L111.814 119.664L111.79 119.704L120.346 124.88ZM126.106 226L121.907 235.076L121.955 235.098L122.003 235.119L126.106 226ZM177.306 201.36L168.362 196.888L168.299 197.014L168.239 197.143L177.306 201.36ZM179.226 200.08V210.08H180.216L181.187 209.886L179.226 200.08ZM181.786 200.72L174.715 207.791L175.218 208.294L175.786 208.72L181.786 200.72ZM182.426 202.96L173.482 198.488L173.304 198.843L173.155 199.212L182.426 202.96ZM165.466 227.28L171.823 234.999L171.89 234.944L171.956 234.888L165.466 227.28ZM100.826 207.12L91.3394 210.282L91.3653 210.36L91.3925 210.437L100.826 207.12ZM103.386 143.76L112.842 147.015L112.849 146.993L112.856 146.972L103.386 143.76ZM143.386 91.92L138.67 83.1022L138.63 83.1234L138.591 83.145L143.386 91.92ZM217.626 104.72L209.733 110.859L209.757 110.89L209.781 110.921L217.626 104.72ZM222.746 211.6L213.311 208.288L213.3 208.317L213.29 208.346L222.746 211.6ZM201.946 268.88L192.61 265.297L192.592 265.345L192.574 265.393L201.946 268.88ZM304.026 198.48L304.793 188.509L304.41 188.48H304.026V198.48ZM292.186 214.16L282.473 211.781L282.473 211.781L292.186 214.16ZM284.186 265.36L274.254 264.197L292.885 270.292L284.186 265.36ZM308.186 205.84L318.173 206.348L318.186 206.094V205.84H308.186ZM210.586 348.32C221.071 348.32 231.256 343.66 240.912 336.255C250.613 328.816 260.551 318.024 270.769 304.289L254.723 292.351C245.102 305.283 236.426 314.491 228.741 320.385C221.009 326.314 215.035 328.32 210.586 328.32V348.32ZM272.6 300.023C279.68 259.048 284.691 234.294 287.651 224.823L268.561 218.857C265.121 229.866 259.893 256.098 252.892 296.617L272.6 300.023ZM287.697 224.672C290.83 214.061 294.303 207.103 297.683 202.976C300.857 199.101 303.449 198.24 305.626 198.24V178.24C296.07 178.24 288.209 182.979 282.21 190.304C276.417 197.377 271.996 207.219 268.516 219.008L287.697 224.672ZM305.626 198.24C306.572 198.24 306.948 198.383 306.967 198.391C306.971 198.392 306.912 198.368 306.821 198.303C306.729 198.237 306.651 198.162 306.599 198.099C306.39 197.85 307.146 198.564 307.146 202H327.146C327.146 196.262 325.982 190.096 321.934 185.261C317.6 180.085 311.52 178.24 305.626 178.24V198.24ZM307.146 202C307.146 205.734 306.265 211.072 304.063 218.278L323.19 224.122C325.681 215.968 327.146 208.506 327.146 202H307.146ZM304.031 218.384C298.629 236.792 288.586 257.437 273.579 280.363L290.313 291.317C306.027 267.31 317.104 244.861 323.222 224.016L304.031 218.384ZM272.02 284.632C266.081 333.411 258.102 369.491 248.363 393.432L266.889 400.968C277.631 374.562 285.865 336.402 291.873 287.048L272.02 284.632ZM248.367 393.422C237.863 419.168 225.471 437.141 211.66 448.303L224.232 463.857C241.568 449.846 255.63 428.565 266.885 400.978L248.367 393.422ZM211.582 448.366C204.052 454.579 194.73 459.82 183.449 463.977L190.363 482.743C203.402 477.94 214.774 471.661 224.31 463.794L211.582 448.366ZM183.449 463.977C172.52 468.003 160.373 470.08 146.906 470.08V490.08C162.453 490.08 176.972 487.677 190.363 482.743L183.449 463.977ZM146.906 470.08C117.644 470.08 99.2098 460.185 88.6671 442.087L71.3854 452.153C86.4427 478.002 112.595 490.08 146.906 490.08V470.08ZM88.6766 442.103C83.1502 432.575 80.7463 424.053 80.7463 416.4H60.7463C60.7463 428.374 64.529 440.332 71.3759 452.137L88.6766 442.103ZM80.7463 416.4C80.7463 407.603 81.8225 399.971 83.8298 393.402L64.7027 387.558C62.0166 396.349 60.7463 405.997 60.7463 416.4H80.7463ZM83.8734 393.255C88.7725 376.297 97.7355 365.213 110.467 358.76L101.425 340.92C83.0103 350.254 70.8533 366.263 64.6591 387.705L83.8734 393.255ZM110.315 358.835C116.382 355.889 122.883 354.4 129.946 354.4V334.4C119.943 334.4 110.444 336.538 101.577 340.845L110.315 358.835ZM129.946 354.4C139.989 354.4 147.708 356.342 153.584 359.665C159.364 362.934 163.955 367.87 167.316 374.935L185.377 366.345C180.417 355.917 173.115 347.733 163.429 342.255C153.838 336.832 142.517 334.4 129.946 334.4V354.4ZM167.304 374.91C170.428 381.526 171.786 387.43 171.786 392.72H191.786C191.786 383.93 189.518 375.114 185.389 366.37L167.304 374.91ZM171.786 392.72C171.786 398.516 170.739 403.973 168.661 409.166L187.231 416.594C190.274 408.987 191.786 401.004 191.786 392.72H171.786ZM168.589 409.354C166.231 415.61 163.444 419.435 160.684 421.676C158.076 423.793 154.936 424.96 150.746 424.96V444.96C159.143 444.96 166.83 442.447 173.289 437.204C179.595 432.085 184.115 424.87 187.304 416.406L168.589 409.354ZM150.746 424.96C150.723 424.96 150.828 424.959 151.009 425.015C151.194 425.073 151.346 425.156 151.439 425.223L139.814 441.497C143.085 443.834 146.845 444.96 150.746 444.96V424.96ZM151.439 425.223C151.492 425.261 151.51 425.288 151.489 425.262C151.464 425.23 151.37 425.102 151.244 424.819L132.968 432.941C134.44 436.252 136.668 439.25 139.814 441.497L151.439 425.223ZM142.106 438.88C157.591 438.88 167.723 427.88 173.759 413.152L155.253 405.568C150.623 416.866 145.822 418.88 142.106 418.88V438.88ZM173.791 413.074C176.803 405.543 178.346 397.779 178.346 389.84H158.346C158.346 395.128 157.329 400.376 155.221 405.646L173.791 413.074ZM178.346 389.84C178.346 381.852 176.477 373.877 173.028 365.992L154.705 374.008C157.228 379.777 158.346 385.028 158.346 389.84H178.346ZM173.011 365.953C169.318 357.61 163.545 351.018 155.71 346.634C148.009 342.324 138.924 340.48 128.986 340.48V360.48C136.542 360.48 142.017 361.889 145.943 364.086C149.734 366.208 152.655 369.377 154.722 374.047L173.011 365.953ZM128.986 340.48C107.484 340.48 90.6801 351.203 79.1122 370.647L96.3003 380.873C104.786 366.61 115.502 360.48 128.986 360.48V340.48ZM79.1456 370.591C71.4433 383.348 67.4663 396.961 67.4663 411.28H87.4663C87.4663 400.852 90.3158 390.785 96.2669 380.929L79.1456 370.591ZM67.4663 411.28C67.4663 417.24 68.2119 423.25 69.6624 429.294L89.1101 424.626C88.0006 420.003 87.4663 415.56 87.4663 411.28H67.4663ZM69.6268 429.14C74.8092 452.338 88.5642 468.668 110.4 476.95L117.493 458.25C102.208 452.452 92.9233 441.689 89.1457 424.78L69.6268 429.14ZM110.356 476.933C120.023 480.651 130.768 482.4 142.426 482.4V462.4C132.752 462.4 124.51 460.949 117.536 458.267L110.356 476.933ZM142.426 482.4C154.368 482.4 165.668 480.524 176.244 476.678L169.409 457.882C161.211 460.863 152.245 462.4 142.426 462.4V482.4ZM175.989 476.767C186.475 473.271 195.799 468.531 203.825 462.451L191.748 446.509C185.694 451.095 178.377 454.889 169.664 457.793L175.989 476.767ZM203.71 462.537C211.916 456.503 219.247 448.889 225.749 439.832L209.503 428.168C204.059 435.751 198.163 441.791 191.862 446.423L203.71 462.537ZM225.749 439.832C232.043 431.067 237.369 422.127 241.699 413.011L223.633 404.429C219.857 412.38 215.157 420.293 209.503 428.168L225.749 439.832ZM241.611 413.192C246.153 404.107 250.282 393.695 254.028 382.014L234.984 375.906C231.478 386.838 227.713 396.266 223.722 404.248L241.611 413.192ZM254.072 381.876C259.539 363.943 264.736 342.14 269.685 316.538L250.048 312.742C245.183 337.914 240.14 358.99 234.941 376.044L254.072 381.876ZM252.43 307.955C243.281 318.131 235.118 325.368 227.954 330.004C220.758 334.661 215.151 336.32 210.906 336.32V356.32C220.315 356.32 229.695 352.699 238.819 346.796C247.974 340.872 257.465 332.269 267.303 321.325L252.43 307.955ZM210.906 336.32C199.429 336.32 192.601 333.255 188.486 328.808C184.235 324.214 181.226 316.376 181.226 303.44H161.226C161.226 319.091 164.831 332.692 173.807 342.392C182.918 352.238 195.93 356.32 210.906 356.32V336.32ZM181.226 303.44C181.226 292.77 183.329 280.364 187.806 266.118L168.726 260.122C163.817 275.742 161.226 290.217 161.226 303.44H181.226ZM187.767 266.242C192.574 251.611 197.662 238.543 203.016 227.011L184.876 218.589C179.137 230.95 173.772 244.762 168.766 259.998L187.767 266.242ZM202.984 227.081C208.987 214.407 214.381 200.181 219.19 184.442L200.063 178.598C195.485 193.579 190.425 206.873 184.909 218.519L202.984 227.081ZM219.164 184.525C224.319 168.164 226.986 152.53 226.986 137.68H206.986C206.986 150.137 204.747 163.729 200.088 178.515L219.164 184.525ZM226.986 137.68C226.986 121.985 222.385 108.361 212.401 97.8374L197.892 111.603C203.695 117.719 206.986 126.068 206.986 137.68H226.986ZM212.401 97.8374C202.233 87.1195 188.499 82.24 172.506 82.24V102.24C184.247 102.24 192.273 105.681 197.892 111.603L212.401 97.8374ZM172.506 82.24C146.972 82.24 126.678 95.5995 111.838 119.625L128.854 130.135C140.895 110.641 155.374 102.24 172.506 102.24V82.24ZM111.79 119.704C100.443 138.461 94.6662 158.479 94.6662 179.6H114.666C114.666 162.321 119.342 145.859 128.902 130.056L111.79 119.704ZM94.6662 179.6C94.6662 205.445 102.339 226.022 121.907 235.076L130.305 216.924C121.287 212.752 114.666 202.395 114.666 179.6H94.6662ZM122.003 235.119C127.622 237.648 133.615 238.88 139.866 238.88V218.88C136.304 218.88 133.124 218.192 130.21 216.881L122.003 235.119ZM139.866 238.88C150.073 238.88 159.405 235.985 167.469 230.057C175.415 224.217 181.608 215.822 186.373 205.577L168.239 197.143C164.471 205.245 160.157 210.61 155.624 213.943C151.208 217.188 146.086 218.88 139.866 218.88V238.88ZM186.251 205.832C185.871 206.592 185.091 207.762 183.653 208.721C182.153 209.72 180.549 210.08 179.226 210.08V190.08C177.05 190.08 174.699 190.653 172.559 192.079C170.482 193.464 169.168 195.275 168.362 196.888L186.251 205.832ZM181.187 209.886C180.605 210.002 179.549 210.109 178.241 209.781C176.856 209.435 175.638 208.714 174.715 207.791L188.857 193.649C185.353 190.145 180.85 189.557 177.265 190.274L181.187 209.886ZM175.786 208.72C175.109 208.212 173.652 206.891 172.971 204.507C172.242 201.955 172.845 199.763 173.482 198.488L191.371 207.432C192.435 205.304 193.144 202.312 192.201 199.013C191.307 195.882 189.317 193.868 187.786 192.72L175.786 208.72ZM173.155 199.212C169.623 207.949 164.85 214.662 158.977 219.672L171.956 234.888C180.589 227.524 187.123 218.024 191.697 206.708L173.155 199.212ZM159.109 219.561C153.73 223.99 147.472 226.24 139.866 226.24V246.24C151.887 246.24 162.695 242.516 171.823 234.999L159.109 219.561ZM139.866 226.24C132.015 226.24 126.165 224.286 121.685 220.944C117.149 217.561 113.19 212.135 110.26 203.803L91.3925 210.437C95.289 221.518 101.25 230.652 109.727 236.976C118.261 243.341 128.518 246.24 139.866 246.24V226.24ZM110.313 203.958C107.938 196.831 106.666 188.539 106.666 178.96H86.6663C86.6663 190.288 88.1682 200.769 91.3394 210.282L110.313 203.958ZM106.666 178.96C106.666 169.902 108.615 159.293 112.842 147.015L93.9309 140.505C89.1978 154.253 86.6663 167.111 86.6663 178.96H106.666ZM112.856 146.972C120.572 124.219 132.53 109.249 148.182 100.695L138.591 83.145C117.549 94.6446 102.84 114.234 93.916 140.548L112.856 146.972ZM148.103 100.738C155.849 96.5944 163.939 94.56 172.506 94.56V74.56C160.594 74.56 149.27 77.4323 138.67 83.1022L148.103 100.738ZM172.506 94.56C189.58 94.56 201.479 100.247 209.733 110.859L225.52 98.5806C212.867 82.3129 194.686 74.56 172.506 74.56V94.56ZM209.781 110.921C218.465 121.909 223.306 137.109 223.306 157.52H243.306C243.306 133.984 237.694 113.985 225.472 98.5195L209.781 110.921ZM223.306 157.52C223.306 172.09 220.092 188.97 213.311 208.288L232.182 214.912C239.48 194.123 243.306 174.95 243.306 157.52H223.306ZM213.29 208.346C206.499 228.083 199.606 247.067 192.61 265.297L211.282 272.463C218.367 254 225.34 234.797 232.202 214.854L213.29 208.346ZM192.574 265.393C185.563 284.236 181.706 300.664 181.706 314.32H201.706C201.706 304.082 204.676 290.218 211.318 272.367L192.574 265.393ZM181.706 314.32C181.706 323.359 183.438 331.984 188.567 338.503C194.055 345.479 202.027 348.32 210.586 348.32V328.32C206.559 328.32 205.091 327.161 204.286 326.137C203.121 324.656 201.706 321.281 201.706 314.32H181.706ZM304.026 188.48C297.504 188.48 292.469 191.894 289.086 196.374C285.932 200.551 283.895 205.977 282.473 211.781L301.899 216.539C303.038 211.89 304.254 209.476 305.047 208.426C305.39 207.971 305.474 208.015 305.194 208.173C304.853 208.365 304.409 208.48 304.026 208.48V188.48ZM282.473 211.781C279.755 222.881 277.032 240.476 274.254 264.197L294.118 266.523C296.887 242.884 299.497 226.346 301.899 216.539L282.473 211.781ZM292.885 270.292C300.695 256.517 306.76 244.368 310.981 233.9C315.149 223.563 317.771 214.26 318.173 206.348L298.199 205.332C297.961 210.007 296.264 216.917 292.432 226.42C288.653 235.792 283.038 247.109 275.487 260.428L292.885 270.292ZM318.186 205.84C318.186 202.785 317.783 198.976 315.852 195.559C313.545 191.478 309.554 188.876 304.793 188.509L303.259 208.451C302.515 208.393 301.488 208.145 300.45 207.479C299.416 206.816 298.782 206.004 298.441 205.401C298.128 204.847 298.085 204.518 298.109 204.645C298.132 204.761 298.186 205.133 298.186 205.84H318.186ZM375.541 348.88L370.191 340.432L370.092 340.495L369.994 340.559L375.541 348.88ZM360.821 347.92V337.92H347.282L351.263 350.861L360.821 347.92ZM364.981 341.84L374.767 343.9L374.777 343.851L374.787 343.801L364.981 341.84ZM368.821 329.36L359.702 325.256L359.652 325.367L359.605 325.479L368.821 329.36ZM377.781 332.96C377.894 332.96 377.519 332.978 376.903 332.702C376.23 332.399 375.654 331.916 375.27 331.398C374.929 330.939 374.911 330.686 374.974 330.941C375.039 331.205 375.141 331.812 375.141 332.88H395.141C395.141 328.629 394.404 323.622 391.332 319.482C387.845 314.782 382.715 312.96 377.781 312.96V332.96ZM375.141 332.88C375.141 335.518 374.192 337.898 370.191 340.432L380.892 357.328C389.691 351.755 395.141 343.468 395.141 332.88H375.141ZM369.994 340.559C368.838 341.33 368.004 341.742 367.471 341.947C366.938 342.152 366.889 342.08 367.221 342.08V362.08C372.438 362.08 377.195 359.796 381.088 357.201L369.994 340.559ZM367.221 342.08C366.805 342.08 367.489 341.991 368.511 342.656C369.027 342.991 369.478 343.425 369.824 343.908C370.161 344.376 370.316 344.773 370.379 344.979L351.263 350.861C352.277 354.154 354.306 357.276 357.611 359.424C360.767 361.476 364.224 362.08 367.221 362.08V342.08ZM360.821 357.92C365.994 357.92 369.579 354.934 371.554 352.047C373.329 349.453 374.23 346.45 374.767 343.9L355.196 339.78C354.879 341.283 354.66 341.32 355.048 340.753C355.292 340.397 355.874 339.665 356.936 339.014C358.078 338.314 359.437 337.92 360.821 337.92V357.92ZM374.787 343.801C375.507 340.2 376.589 336.682 378.038 333.241L359.605 325.479C357.641 330.144 356.162 334.947 355.175 339.879L374.787 343.801ZM377.94 333.464C378.153 332.991 378.321 332.744 378.397 332.644C378.467 332.553 378.448 332.602 378.314 332.697C378.25 332.743 378.172 332.79 378.084 332.833C377.997 332.877 377.914 332.908 377.841 332.93C377.69 332.976 377.651 332.96 377.781 332.96V312.96C373.898 312.96 370.055 314.018 366.689 316.423C363.411 318.764 361.192 321.945 359.702 325.256L377.94 333.464ZM672.512 298.32L680.535 304.289L681.96 302.374L682.366 300.023L672.512 298.32ZM687.872 221.84L697.417 224.823L697.44 224.747L697.463 224.672L687.872 221.84ZM723.392 221.2L713.828 218.278L713.812 218.331L713.797 218.384L723.392 221.2ZM691.712 285.84L683.345 280.363L682.067 282.316L681.785 284.632L691.712 285.84ZM667.392 397.2L676.651 400.978L676.655 400.968L667.392 397.2ZM627.712 456.08L621.426 448.303L621.387 448.334L621.348 448.366L627.712 456.08ZM596.672 473.36L600.129 482.743L600.129 482.743L596.672 473.36ZM489.792 447.12L481.142 452.137L481.146 452.145L481.151 452.153L489.792 447.12ZM484.032 390.48L493.595 393.402L493.618 393.329L493.639 393.255L484.032 390.48ZM515.712 349.84L511.343 340.845L511.267 340.882L511.191 340.92L515.712 349.84ZM586.112 370.64L595.154 366.37L595.148 366.357L595.143 366.345L586.112 370.64ZM587.712 412.88L578.427 409.166L578.39 409.26L578.354 409.354L587.712 412.88ZM555.392 433.36L549.579 441.497L549.579 441.497L555.392 433.36ZM551.872 428.88V418.88H536.484L542.734 432.941L551.872 428.88ZM574.272 409.36L583.525 413.152L583.541 413.113L583.557 413.074L574.272 409.36ZM573.632 370L582.793 365.992L582.785 365.972L582.776 365.953L573.632 370ZM497.472 375.76L506.033 380.929L506.049 380.901L506.066 380.873L497.472 375.76ZM489.152 426.96L498.911 424.78L498.894 424.703L498.876 424.626L489.152 426.96ZM523.712 467.6L527.302 458.267L527.28 458.258L527.258 458.25L523.712 467.6ZM582.592 467.28L579.43 457.793L579.301 457.836L579.174 457.882L582.592 467.28ZM607.552 454.48L601.628 446.423L601.57 446.466L601.513 446.509L607.552 454.48ZM627.392 434L635.515 439.832L635.515 439.832L627.392 434ZM642.432 408.72L633.488 404.248L633.442 404.338L633.399 404.429L642.432 408.72ZM654.272 378.96L663.794 382.014L663.816 381.945L663.837 381.876L654.272 378.96ZM669.632 314.64L679.45 316.538L686.289 281.153L662.195 307.955L669.632 314.64ZM588.032 263.12L578.532 259.998L578.511 260.06L578.492 260.122L588.032 263.12ZM603.712 222.8L594.674 218.519L594.658 218.554L594.642 218.589L603.712 222.8ZM619.392 181.52L609.854 178.515L609.841 178.556L609.828 178.598L619.392 181.52ZM614.912 104.72L607.657 111.603L607.657 111.603L614.912 104.72ZM530.112 124.88L521.604 119.625L521.58 119.664L521.556 119.704L530.112 124.88ZM535.872 226L531.673 235.076L531.72 235.098L531.768 235.119L535.872 226ZM587.072 201.36L578.128 196.888L578.064 197.014L578.005 197.143L587.072 201.36ZM588.992 200.08V210.08H589.982L590.953 209.886L588.992 200.08ZM591.552 200.72L584.481 207.791L584.983 208.294L585.552 208.72L591.552 200.72ZM592.192 202.96L583.248 198.488L583.07 198.843L582.921 199.212L592.192 202.96ZM575.232 227.28L581.589 234.999L581.656 234.944L581.721 234.888L575.232 227.28ZM510.592 207.12L501.105 210.282L501.131 210.36L501.158 210.437L510.592 207.12ZM513.152 143.76L522.607 147.015L522.615 146.993L522.622 146.972L513.152 143.76ZM553.152 91.92L548.435 83.1022L548.396 83.1234L548.356 83.145L553.152 91.92ZM627.392 104.72L619.498 110.859L619.522 110.89L619.546 110.921L627.392 104.72ZM632.512 211.6L623.076 208.288L623.066 208.317L623.056 208.346L632.512 211.6ZM611.712 268.88L602.376 265.297L602.357 265.345L602.34 265.393L611.712 268.88ZM713.792 198.48L714.559 188.509L714.176 188.48H713.792V198.48ZM701.952 214.16L692.239 211.781L692.239 211.781L701.952 214.16ZM693.952 265.36L684.02 264.197L702.651 270.292L693.952 265.36ZM717.952 205.84L727.939 206.348L727.952 206.094V205.84H717.952ZM620.352 348.32C630.836 348.32 641.022 343.66 650.677 336.255C660.378 328.816 670.317 318.024 680.535 304.289L664.489 292.351C654.867 305.283 646.192 314.491 638.507 320.385C630.775 326.314 624.801 328.32 620.352 328.32V348.32ZM682.366 300.023C689.445 259.048 694.457 234.294 697.417 224.823L678.327 218.857C674.887 229.866 669.659 256.098 662.658 296.617L682.366 300.023ZM697.463 224.672C700.595 214.061 704.068 207.103 707.448 202.976C710.623 199.101 713.215 198.24 715.392 198.24V178.24C705.835 178.24 697.975 182.979 691.976 190.304C686.182 197.377 681.762 207.219 678.281 219.008L697.463 224.672ZM715.392 198.24C716.337 198.24 716.714 198.383 716.733 198.391C716.737 198.392 716.678 198.368 716.587 198.303C716.494 198.237 716.417 198.162 716.364 198.099C716.156 197.85 716.912 198.564 716.912 202H736.912C736.912 196.262 735.748 190.096 731.699 185.261C727.366 180.085 721.286 178.24 715.392 178.24V198.24ZM716.912 202C716.912 205.734 716.03 211.072 713.828 218.278L732.955 224.122C735.447 215.968 736.912 208.506 736.912 202H716.912ZM713.797 218.384C708.394 236.792 698.351 257.437 683.345 280.363L700.079 291.317C715.792 267.31 726.87 244.861 732.987 224.016L713.797 218.384ZM681.785 284.632C675.847 333.411 667.868 369.491 658.129 393.432L676.655 400.968C687.396 374.562 695.63 336.402 701.639 287.048L681.785 284.632ZM658.133 393.422C647.629 419.168 635.236 437.141 621.426 448.303L633.998 463.857C651.334 449.846 665.395 428.565 676.651 400.978L658.133 393.422ZM621.348 448.366C613.817 454.579 604.496 459.82 593.215 463.977L600.129 482.743C613.168 477.94 624.54 471.661 634.076 463.794L621.348 448.366ZM593.215 463.977C582.286 468.003 570.139 470.08 556.672 470.08V490.08C572.218 490.08 586.738 487.677 600.129 482.743L593.215 463.977ZM556.672 470.08C527.41 470.08 508.975 460.185 498.433 442.087L481.151 452.153C496.208 478.002 522.361 490.08 556.672 490.08V470.08ZM498.442 442.103C492.916 432.575 490.512 424.053 490.512 416.4H470.512C470.512 428.374 474.295 440.332 481.142 452.137L498.442 442.103ZM490.512 416.4C490.512 407.603 491.588 399.971 493.595 393.402L474.468 387.558C471.782 396.349 470.512 405.997 470.512 416.4H490.512ZM493.639 393.255C498.538 376.297 507.501 365.213 520.233 358.76L511.191 340.92C492.776 350.254 480.619 366.263 474.425 387.705L493.639 393.255ZM520.081 358.835C526.147 355.889 532.648 354.4 539.712 354.4V334.4C529.709 334.4 520.21 336.538 511.343 340.845L520.081 358.835ZM539.712 354.4C549.755 354.4 557.474 356.342 563.349 359.665C569.13 362.934 573.721 367.87 577.081 374.935L595.143 366.345C590.183 355.917 582.88 347.733 573.194 342.255C563.603 336.832 552.282 334.4 539.712 334.4V354.4ZM577.069 374.91C580.194 381.526 581.552 387.43 581.552 392.72H601.552C601.552 383.93 599.283 375.114 595.154 366.37L577.069 374.91ZM581.552 392.72C581.552 398.516 580.504 403.973 578.427 409.166L596.997 416.594C600.039 408.987 601.552 401.004 601.552 392.72H581.552ZM578.354 409.354C575.997 415.61 573.21 419.435 570.449 421.676C567.841 423.793 564.702 424.96 560.512 424.96V444.96C568.909 444.96 576.596 442.447 583.054 437.204C589.361 432.085 593.88 424.87 597.07 416.406L578.354 409.354ZM560.512 424.96C560.489 424.96 560.594 424.959 560.775 425.015C560.96 425.073 561.111 425.156 561.204 425.223L549.579 441.497C552.85 443.834 556.61 444.96 560.512 444.96V424.96ZM561.204 425.223C561.257 425.261 561.275 425.288 561.255 425.262C561.23 425.23 561.136 425.102 561.01 424.819L542.734 432.941C544.205 436.252 546.434 439.25 549.579 441.497L561.204 425.223ZM551.872 438.88C567.357 438.88 577.489 427.88 583.525 413.152L565.019 405.568C560.388 416.866 555.587 418.88 551.872 418.88V438.88ZM583.557 413.074C586.569 405.543 588.112 397.779 588.112 389.84H568.112C568.112 395.128 567.095 400.376 564.987 405.646L583.557 413.074ZM588.112 389.84C588.112 381.852 586.243 373.877 582.793 365.992L564.47 374.008C566.994 379.777 568.112 385.028 568.112 389.84H588.112ZM582.776 365.953C579.083 357.61 573.311 351.018 565.475 346.634C557.775 342.324 548.69 340.48 538.752 340.48V360.48C546.307 360.48 551.783 361.889 555.708 364.086C559.5 366.208 562.42 369.377 564.488 374.047L582.776 365.953ZM538.752 340.48C517.249 340.48 500.446 351.203 488.878 370.647L506.066 380.873C514.551 366.61 525.268 360.48 538.752 360.48V340.48ZM488.911 370.591C481.209 383.348 477.232 396.961 477.232 411.28H497.232C497.232 400.852 500.081 390.785 506.033 380.929L488.911 370.591ZM477.232 411.28C477.232 417.24 477.978 423.25 479.428 429.294L498.876 424.626C497.766 420.003 497.232 415.56 497.232 411.28H477.232ZM479.392 429.14C484.575 452.338 498.33 468.668 520.165 476.95L527.258 458.25C511.974 452.452 502.689 441.689 498.911 424.78L479.392 429.14ZM520.122 476.933C529.789 480.651 540.533 482.4 552.192 482.4V462.4C542.517 462.4 534.275 460.949 527.302 458.267L520.122 476.933ZM552.192 482.4C564.133 482.4 575.434 480.524 586.009 476.678L579.174 457.882C570.977 460.863 562.01 462.4 552.192 462.4V482.4ZM585.754 476.767C596.241 473.271 605.564 468.531 613.59 462.451L601.513 446.509C595.459 451.095 588.143 454.889 579.43 457.793L585.754 476.767ZM613.476 462.537C621.682 456.503 629.013 448.889 635.515 439.832L619.269 428.168C613.824 435.751 607.929 441.791 601.628 446.423L613.476 462.537ZM635.515 439.832C641.808 431.067 647.134 422.127 651.465 413.011L633.399 404.429C629.623 412.38 624.922 420.293 619.269 428.168L635.515 439.832ZM651.376 413.192C655.919 404.107 660.047 393.695 663.794 382.014L644.75 375.906C641.243 386.838 637.478 396.266 633.488 404.248L651.376 413.192ZM663.837 381.876C669.305 363.943 674.502 342.14 679.45 316.538L659.814 312.742C654.949 337.914 649.906 358.99 644.707 376.044L663.837 381.876ZM662.195 307.955C653.047 318.131 644.884 325.368 637.719 330.004C630.523 334.661 624.917 336.32 620.672 336.32V356.32C630.08 356.32 639.46 352.699 648.584 346.796C657.74 340.872 667.23 332.269 677.069 321.325L662.195 307.955ZM620.672 336.32C609.194 336.32 602.367 333.255 598.252 328.808C594.001 324.214 590.992 316.376 590.992 303.44H570.992C570.992 319.091 574.596 332.692 583.572 342.392C592.684 352.238 605.696 356.32 620.672 356.32V336.32ZM590.992 303.44C590.992 292.77 593.094 280.364 597.572 266.118L578.492 260.122C573.583 275.742 570.992 290.217 570.992 303.44H590.992ZM597.532 266.242C602.339 251.611 607.428 238.543 612.782 227.011L594.642 218.589C588.903 230.95 583.538 244.762 578.532 259.998L597.532 266.242ZM612.749 227.081C618.753 214.407 624.146 200.181 628.955 184.442L609.828 178.598C605.251 193.579 600.191 206.873 594.674 218.519L612.749 227.081ZM628.93 184.525C634.085 168.164 636.752 152.53 636.752 137.68H616.752C616.752 150.137 614.513 163.729 609.854 178.515L628.93 184.525ZM636.752 137.68C636.752 121.985 632.15 108.361 622.167 97.8374L607.657 111.603C613.46 117.719 616.752 126.068 616.752 137.68H636.752ZM622.167 97.8374C611.998 87.1195 598.264 82.24 582.272 82.24V102.24C594.013 102.24 602.039 105.681 607.657 111.603L622.167 97.8374ZM582.272 82.24C556.737 82.24 536.443 95.5995 521.604 119.625L538.62 130.135C550.661 110.641 565.14 102.24 582.272 102.24V82.24ZM521.556 119.704C510.209 138.461 504.432 158.479 504.432 179.6H524.432C524.432 162.321 529.108 145.859 538.668 130.056L521.556 119.704ZM504.432 179.6C504.432 205.445 512.104 226.022 531.673 235.076L540.071 216.924C531.053 212.752 524.432 202.395 524.432 179.6H504.432ZM531.768 235.119C537.388 237.648 543.381 238.88 549.632 238.88V218.88C546.07 218.88 542.889 218.192 539.976 216.881L531.768 235.119ZM549.632 238.88C559.839 238.88 569.17 235.985 577.234 230.057C585.181 224.217 591.374 215.822 596.139 205.577L578.005 197.143C574.236 205.245 569.923 210.61 565.389 213.943C560.973 217.188 555.852 218.88 549.632 218.88V238.88ZM596.016 205.832C595.636 206.592 594.856 207.762 593.419 208.721C591.919 209.72 590.315 210.08 588.992 210.08V190.08C586.815 190.08 584.465 190.653 582.325 192.079C580.248 193.464 578.934 195.275 578.128 196.888L596.016 205.832ZM590.953 209.886C590.37 210.002 589.315 210.109 588.007 209.781C586.622 209.435 585.403 208.714 584.481 207.791L598.623 193.649C595.119 190.145 590.616 189.557 587.031 190.274L590.953 209.886ZM585.552 208.72C584.874 208.212 583.418 206.891 582.737 204.507C582.007 201.955 582.61 199.763 583.248 198.488L601.136 207.432C602.2 205.304 602.91 202.312 601.967 199.013C601.073 195.882 599.083 193.868 597.552 192.72L585.552 208.72ZM582.921 199.212C579.389 207.949 574.615 214.662 568.742 219.672L581.721 234.888C590.355 227.524 596.888 218.024 601.463 206.708L582.921 199.212ZM568.875 219.561C563.496 223.99 557.237 226.24 549.632 226.24V246.24C561.653 246.24 572.461 242.516 581.589 234.999L568.875 219.561ZM549.632 226.24C541.78 226.24 535.931 224.286 531.451 220.944C526.915 217.561 522.956 212.135 520.026 203.803L501.158 210.437C505.055 221.518 511.015 230.652 519.493 236.976C528.026 243.341 538.283 246.24 549.632 246.24V226.24ZM520.079 203.958C517.703 196.831 516.432 188.539 516.432 178.96H496.432C496.432 190.288 497.934 200.769 501.105 210.282L520.079 203.958ZM516.432 178.96C516.432 169.902 518.38 159.293 522.607 147.015L503.696 140.505C498.963 154.253 496.432 167.111 496.432 178.96H516.432ZM522.622 146.972C530.338 124.219 542.296 109.249 557.948 100.695L548.356 83.145C527.314 94.6446 512.606 114.234 503.682 140.548L522.622 146.972ZM557.868 100.738C565.615 96.5944 573.704 94.56 582.272 94.56V74.56C570.359 74.56 559.036 77.4323 548.435 83.1022L557.868 100.738ZM582.272 94.56C599.346 94.56 611.244 100.247 619.498 110.859L635.285 98.5806C622.633 82.3129 604.452 74.56 582.272 74.56V94.56ZM619.546 110.921C628.23 121.909 633.072 137.109 633.072 157.52H653.072C653.072 133.984 647.46 113.985 635.237 98.5195L619.546 110.921ZM633.072 157.52C633.072 172.09 629.858 188.97 623.076 208.288L641.947 214.912C649.246 194.123 653.072 174.95 653.072 157.52H633.072ZM623.056 208.346C616.265 228.083 609.371 247.067 602.376 265.297L621.048 272.463C628.133 254 635.106 234.797 641.968 214.854L623.056 208.346ZM602.34 265.393C595.328 284.236 591.472 300.664 591.472 314.32H611.472C611.472 304.082 614.442 290.218 621.084 272.367L602.34 265.393ZM591.472 314.32C591.472 323.359 593.204 331.984 598.332 338.503C603.82 345.479 611.793 348.32 620.352 348.32V328.32C616.324 328.32 614.857 327.161 614.051 326.137C612.887 324.656 611.472 321.281 611.472 314.32H591.472ZM713.792 188.48C707.27 188.48 702.234 191.894 698.851 196.374C695.698 200.551 693.66 205.977 692.239 211.781L711.665 216.539C712.803 211.89 714.02 209.476 714.812 208.426C715.156 207.971 715.239 208.015 714.959 208.173C714.619 208.365 714.175 208.48 713.792 208.48V188.48ZM692.239 211.781C689.521 222.881 686.798 240.476 684.02 264.197L703.884 266.523C706.653 242.884 709.263 226.346 711.665 216.539L692.239 211.781ZM702.651 270.292C710.46 256.517 716.525 244.368 720.746 233.9C724.914 223.563 727.537 214.26 727.939 206.348L707.965 205.332C707.727 210.007 706.029 216.917 702.197 226.42C698.418 235.792 692.803 247.109 685.253 260.428L702.651 270.292ZM727.952 205.84C727.952 202.785 727.548 198.976 725.617 195.559C723.311 191.478 719.32 188.876 714.559 188.509L713.025 208.451C712.281 208.393 711.254 208.145 710.215 207.479C709.181 206.816 708.547 206.004 708.206 205.401C707.893 204.847 707.85 204.518 707.875 204.645C707.897 204.761 707.952 205.133 707.952 205.84H727.952ZM750.747 259.92L741.629 255.813L741.61 255.856L741.59 255.9L750.747 259.92ZM791.387 213.52L787.614 204.259L787.48 204.314L787.348 204.372L791.387 213.52ZM822.747 215.12L829.818 208.049L829.818 208.049L822.747 215.12ZM824.667 229.52L823.563 239.459L824.113 239.52H824.667V229.52ZM818.587 221.2L811.943 228.674L812.377 229.06L812.852 229.392L818.587 221.2ZM773.467 254.8L782.562 258.958L782.572 258.936L782.582 258.914L773.467 254.8ZM785.947 323.28L778.293 316.844L778.286 316.852L778.279 316.861L785.947 323.28ZM807.707 290.64L798.942 285.826L798.914 285.876L798.888 285.926L807.707 290.64ZM848.347 252.24L858.141 254.26L858.17 254.119L858.195 253.978L848.347 252.24ZM836.827 311.44L826.898 310.249L826.875 310.445L826.859 310.643L836.827 311.44ZM866.907 316.24L875.172 321.87L875.172 321.87L866.907 316.24ZM892.827 272.08L901.797 276.5L901.797 276.5L892.827 272.08ZM903.707 250V240H897.486L894.737 245.58L903.707 250ZM912.347 250L921.291 254.472L928.527 240H912.347V250ZM907.227 260.56L898.198 256.261L898.152 256.358L898.108 256.456L907.227 260.56ZM895.387 283.92L904.192 288.661L904.21 288.626L904.229 288.591L895.387 283.92ZM878.107 313.36L869.722 307.91L869.674 307.985L869.627 308.06L878.107 313.36ZM859.867 336.72L852.688 329.759L852.684 329.762L859.867 336.72ZM821.467 285.52L831.331 287.164L833.271 275.52H821.467V285.52ZM819.227 285.52V275.52H813.245L810.416 280.79L819.227 285.52ZM764.507 336.32C759.011 336.32 756.018 334.492 753.878 331.269C751.26 327.325 749.227 320.143 749.227 308.24H729.227C729.227 321.723 731.407 333.581 737.216 342.331C743.503 351.801 753.149 356.32 764.507 356.32V336.32ZM749.227 308.24C749.227 295.25 752.621 280.527 759.903 263.94L741.59 255.9C733.513 274.299 729.227 291.79 729.227 308.24H749.227ZM759.865 264.027C769.964 241.606 782.084 228.559 795.426 222.668L787.348 204.372C767.836 212.987 752.863 230.874 741.629 255.813L759.865 264.027ZM795.16 222.781C799.818 220.883 804.301 220 808.667 220V200C801.513 200 794.476 201.464 787.614 204.259L795.16 222.781ZM808.667 220C812.655 220 814.562 221.077 815.676 222.191L829.818 208.049C824.105 202.336 816.625 200 808.667 200V220ZM815.676 222.191C817.482 223.998 817.867 225.382 817.867 226.64H837.867C837.867 219.364 834.838 213.069 829.818 208.049L815.676 222.191ZM817.867 226.64C817.867 225.77 818.157 223.365 820.377 221.367C822.397 219.549 824.437 219.52 824.667 219.52V239.52C827.03 239.52 830.67 239.011 833.757 236.233C837.044 233.275 837.867 229.43 837.867 226.64H817.867ZM825.771 219.581C826.394 219.65 828.284 220.031 829.94 221.87C831.603 223.719 831.787 225.658 831.787 226.32H811.787C811.787 228.902 812.45 232.335 815.074 235.25C817.69 238.156 821.02 239.176 823.563 239.459L825.771 219.581ZM831.787 226.32C831.787 220.046 828.089 215.645 824.322 213.008L812.852 229.392C813.128 229.585 812.861 229.467 812.507 228.9C812.097 228.244 811.787 227.327 811.787 226.32H831.787ZM825.231 213.726C820.758 209.75 815.057 208.64 809.947 208.64V228.64C811.158 228.64 811.843 228.778 812.146 228.868C812.415 228.948 812.251 228.948 811.943 228.674L825.231 213.726ZM809.947 208.64C799.919 208.64 791.122 213.228 783.707 220.578C776.418 227.803 770.051 238.06 764.352 250.686L782.582 258.914C787.763 247.434 792.916 239.611 797.787 234.782C802.532 230.079 806.535 228.64 809.947 228.64V208.64ZM764.372 250.642C753.669 274.056 748.107 296.703 748.107 318.48H768.107C768.107 300.15 772.785 280.344 782.562 258.958L764.372 250.642ZM748.107 318.48C748.107 325.079 748.772 331.367 750.924 336.358C752.046 338.963 753.777 341.693 756.489 343.791C759.341 345.996 762.689 347.04 766.107 347.04V327.04C766.858 327.04 767.873 327.311 768.724 327.969C769.437 328.52 769.501 328.931 769.29 328.442C768.775 327.246 768.107 324.254 768.107 318.48H748.107ZM766.107 347.04C771.646 347.04 776.666 344.772 780.926 341.817C785.228 338.833 789.451 334.673 793.614 329.699L778.279 316.861C774.763 321.061 771.839 323.78 769.528 325.383C767.175 327.015 766.114 327.04 766.107 327.04V347.04ZM793.6 329.716C802 319.728 809.631 308.254 816.526 295.354L798.888 285.926C792.556 297.772 785.681 308.059 778.293 316.844L793.6 329.716ZM816.472 295.454C830.627 269.68 839.547 252.101 842.446 243.643L823.527 237.157C821.307 243.632 813.374 259.547 798.942 285.826L816.472 295.454ZM842.446 243.643C842.994 242.045 843.509 240.778 843.975 239.799C844.449 238.804 844.811 238.236 845.014 237.963C845.233 237.669 845.112 237.924 844.546 238.292C843.894 238.714 842.766 239.2 841.307 239.2V219.2C835.201 219.2 831.158 223.077 828.959 226.037C826.677 229.11 824.943 233.027 823.527 237.157L842.446 243.643ZM841.307 239.2C841.211 239.2 840.642 239.169 839.921 238.765C839.189 238.355 838.819 237.852 838.714 237.675C838.647 237.562 838.821 237.813 838.998 238.706C839.172 239.585 839.307 240.866 839.307 242.64H859.307C859.307 237.495 858.599 231.98 855.9 227.445C852.713 222.091 847.399 219.2 841.307 219.2V239.2ZM839.307 242.64C839.307 244.677 839.068 247.275 838.499 250.502L858.195 253.978C858.905 249.951 859.307 246.149 859.307 242.64H839.307ZM838.553 250.22C831.57 284.078 827.602 304.379 826.898 310.249L846.756 312.631C847.331 307.834 851.044 288.669 858.141 254.26L838.553 250.22ZM826.859 310.643C826.431 315.993 826.187 320.18 826.187 322.96H846.187C846.187 321.047 846.37 317.553 846.795 312.237L826.859 310.643ZM826.187 322.96C826.187 328.56 826.807 334.206 829.009 338.801C830.174 341.233 831.945 343.711 834.616 345.569C837.371 347.485 840.481 348.32 843.547 348.32V328.32C844.16 328.32 845.123 328.515 846.038 329.151C846.868 329.729 847.106 330.287 847.045 330.159C846.97 330.001 846.728 329.397 846.522 328.103C846.32 326.838 846.187 325.147 846.187 322.96H826.187ZM843.547 348.32C850.39 348.32 856.181 344.07 860.416 340.067C865.062 335.676 869.982 329.489 875.172 321.87L858.642 310.61C853.805 317.711 849.819 322.564 846.678 325.533C843.126 328.89 842.251 328.32 843.547 328.32V348.32ZM875.172 321.87C885.439 306.796 894.32 291.673 901.797 276.5L883.857 267.66C876.827 281.927 868.428 296.244 858.642 310.61L875.172 321.87ZM901.797 276.5L912.677 254.42L894.737 245.58L883.857 267.66L901.797 276.5ZM903.707 260H912.347V240H903.707V260ZM903.403 245.528C902.081 248.172 900.342 251.758 898.198 256.261L916.255 264.859C918.378 260.402 920.053 256.948 921.291 254.472L903.403 245.528ZM898.108 256.456C896.336 260.394 892.533 267.915 886.545 279.249L904.229 288.591C910.188 277.312 914.278 269.259 916.346 264.664L898.108 256.456ZM886.582 279.179C880.71 290.085 875.089 299.654 869.722 307.91L886.491 318.81C892.218 310 898.117 299.942 904.192 288.661L886.582 279.179ZM869.627 308.06C864.658 316.011 859.011 323.238 852.688 329.759L867.046 343.681C874.376 336.122 880.889 327.776 886.587 318.66L869.627 308.06ZM852.684 329.762C846.391 336.258 843.155 336.96 842.587 336.96V356.96C851.832 356.96 860.116 350.835 867.049 343.678L852.684 329.762ZM842.587 336.96C837.491 336.96 834.892 335.318 833.076 332.668C830.794 329.337 828.907 323.089 828.907 312.4H808.907C808.907 324.751 810.966 335.783 816.578 343.972C822.655 352.842 831.896 356.96 842.587 356.96V336.96ZM828.907 312.4C828.907 305.424 829.685 297.036 831.331 287.164L811.603 283.876C809.835 294.484 808.907 304.016 808.907 312.4H828.907ZM821.467 275.52H819.227V295.52H821.467V275.52ZM810.416 280.79C799.694 300.762 790.136 315.161 781.794 324.43C773.091 334.101 767.393 336.32 764.507 336.32V356.32C776.341 356.32 787.123 348.406 796.66 337.81C806.558 326.812 816.999 310.811 828.038 290.25L810.416 280.79ZM943.203 175.12L944.307 165.181L943.757 165.12H943.203V175.12ZM947.683 177.68L955.82 171.868L955.82 171.868L947.683 177.68ZM944.803 192.4L936.165 187.361L936.086 187.498L936.01 187.637L944.803 192.4ZM941.923 213.52L932.365 216.461L932.4 216.572L932.436 216.682L941.923 213.52ZM949.923 232.72L940.762 236.728L940.764 236.733L949.923 232.72ZM950.243 336.4L942.561 329.998L942.526 330.041L942.491 330.083L950.243 336.4ZM913.763 278.8L905.312 273.454L905.295 273.481L905.278 273.509L913.763 278.8ZM935.203 255.12L940.907 263.334L940.922 263.323L940.938 263.312L935.203 255.12ZM939.363 256.08L929.785 258.953L929.913 259.38L930.078 259.794L939.363 256.08ZM938.083 261.2L943.948 269.299L944.016 269.25L944.083 269.2L938.083 261.2ZM909.283 303.76L918.711 307.094L918.714 307.086L918.717 307.077L909.283 303.76ZM907.363 340.24L915.684 334.693L915.586 334.547L915.483 334.404L907.363 340.24ZM936.803 325.2L946.011 329.101L946.011 329.101L936.803 325.2ZM939.043 233.04L929.406 235.709L929.406 235.709L939.043 233.04ZM932.643 209.04L942.449 207.079L936.921 179.441L923.794 204.383L932.643 209.04ZM911.843 250V260H918.063L920.813 254.422L911.843 250ZM903.203 250L894.275 245.496L886.959 260H903.203V250ZM931.363 195.6L940.148 200.378L941.206 198.433L941.344 196.224L931.363 195.6ZM942.563 185.12H943.203V165.12H942.563V185.12ZM942.099 185.059C941.868 185.033 941.379 184.933 940.802 184.602C940.212 184.266 939.794 183.84 939.546 183.492L955.82 171.868C953.006 167.928 948.883 165.69 944.307 165.181L942.099 185.059ZM939.546 183.492C939.55 183.499 939.471 183.387 939.396 183.162C939.319 182.93 939.283 182.688 939.283 182.48H959.283C959.283 178.529 958.002 174.922 955.82 171.868L939.546 183.492ZM939.283 182.48C939.283 181.391 939.517 180.77 939.455 180.969C939.429 181.05 939.321 181.362 939.049 181.964C938.506 183.168 937.578 184.939 936.165 187.361L953.441 197.439C955.014 194.741 956.327 192.299 957.277 190.196C958.001 188.591 959.283 185.612 959.283 182.48H939.283ZM936.01 187.637C932.996 193.202 930.643 199.153 930.643 204.88H950.643C950.643 204.207 951.064 201.838 953.596 197.163L936.01 187.637ZM930.643 204.88C930.643 208.834 931.21 212.707 932.365 216.461L951.481 210.579C950.929 208.786 950.643 206.899 950.643 204.88H930.643ZM932.436 216.682C933.466 219.773 936.354 226.654 940.762 236.728L959.085 228.712C954.532 218.306 952.086 212.387 951.41 210.358L932.436 216.682ZM940.764 236.733C950.22 258.319 954.643 276.975 954.643 292.88H974.643C974.643 273.372 969.252 251.921 959.083 228.707L940.764 236.733ZM954.643 292.88C954.643 308.444 950.42 320.567 942.561 329.998L957.925 342.802C969.266 329.193 974.643 312.303 974.643 292.88H954.643ZM942.491 330.083C934.738 339.598 926.148 343.68 916.323 343.68V363.68C932.952 363.68 946.975 356.242 957.995 342.717L942.491 330.083ZM916.323 343.68C911.922 343.68 910.256 342.438 909.399 341.399C908.238 339.99 906.803 336.771 906.803 330H886.803C886.803 339.016 888.622 347.636 893.967 354.121C899.617 360.975 907.711 363.68 916.323 363.68V343.68ZM906.803 330C906.803 316.4 911.609 301.155 922.249 284.091L905.278 273.509C893.304 292.711 886.803 311.6 886.803 330H906.803ZM922.214 284.146C928.331 274.477 934.618 267.701 940.907 263.334L929.499 246.906C920.428 253.205 912.421 262.217 905.312 273.454L922.214 284.146ZM940.938 263.312C940.933 263.316 940.846 263.377 940.68 263.465C940.517 263.552 940.229 263.692 939.825 263.827C939.039 264.089 937.508 264.425 935.595 263.984C931.09 262.944 929.873 259.247 929.785 258.953L948.941 253.207C948.213 250.78 945.983 245.856 940.092 244.496C935.066 243.336 931.083 245.798 929.469 246.928L940.938 263.312ZM930.078 259.794C929.962 259.504 929.549 258.265 929.982 256.535C930.437 254.714 931.504 253.635 932.083 253.2L944.083 269.2C946.369 267.485 948.503 264.912 949.385 261.385C950.244 257.948 949.617 254.79 948.648 252.366L930.078 259.794ZM932.218 253.101C917.712 263.605 907.121 279.763 899.849 300.443L918.717 307.077C925.098 288.931 933.707 276.715 943.948 269.299L932.218 253.101ZM899.855 300.426C896.591 309.656 894.566 318.074 894.177 325.474C893.789 332.836 894.981 340.147 899.243 346.076L915.483 334.404C914.839 333.507 913.897 331.324 914.149 326.526C914.4 321.766 915.789 315.357 918.711 307.094L899.855 300.426ZM899.043 345.787C902.691 351.26 908.34 354.08 914.723 354.08V334.08C914.481 334.08 914.699 334.04 915.109 334.254C915.296 334.352 915.452 334.467 915.566 334.572C915.676 334.674 915.709 334.731 915.684 334.693L899.043 345.787ZM914.723 354.08C929.897 354.08 939.943 343.42 946.011 329.101L927.596 321.299C922.996 332.153 918.322 334.08 914.723 334.08V354.08ZM946.011 329.101C952.023 314.912 954.803 297.805 954.803 278.16H934.803C934.803 296.062 932.25 310.315 927.596 321.299L946.011 329.101ZM954.803 278.16C954.803 261.157 952.789 245.209 948.68 230.371L929.406 235.709C932.977 248.604 934.803 262.736 934.803 278.16H954.803ZM948.68 230.371C944.774 216.266 942.784 208.753 942.449 207.079L922.837 211.001C923.356 213.594 925.632 222.08 929.406 235.709L948.68 230.371ZM923.794 204.383C917.345 216.636 910.371 230.37 902.874 245.578L920.813 254.422C928.249 239.337 935.141 225.764 941.492 213.697L923.794 204.383ZM911.843 240H903.203V260H911.843V240ZM912.132 254.504C924.28 230.42 933.611 212.398 940.148 200.378L922.578 190.822C915.889 203.122 906.446 221.366 894.275 245.496L912.132 254.504ZM941.344 196.224C941.738 189.913 942.759 186.534 943.577 185.038C943.923 184.405 944.023 184.501 943.65 184.747C943.198 185.045 942.73 185.12 942.563 185.12V165.12C934.887 165.12 929.278 169.501 926.029 175.442C923.114 180.773 921.842 187.633 921.383 194.976L941.344 196.224ZM1008.93 225.04L1018.77 226.807L1018.8 226.631L1018.83 226.454L1008.93 225.04ZM1023.33 226.64L1013.88 229.911L1013.89 229.957L1013.91 230.003L1023.33 226.64ZM1023.65 247.76L1013.86 245.7L1013.85 245.762L1013.83 245.824L1023.65 247.76ZM1018.85 272.08L1009.03 270.144L1006.68 282.08H1018.85V272.08ZM1020.77 272.08V282.08H1027.26L1029.9 276.141L1020.77 272.08ZM1089.25 215.12L1081.44 221.367L1081.53 221.483L1081.63 221.596L1089.25 215.12ZM1089.57 272.08L1079.77 270.071L1077.31 282.08H1089.57V272.08ZM1090.85 272.08V282.08H1097.26L1099.93 276.255L1090.85 272.08ZM1158.37 219.28L1165.99 212.804L1165.99 212.804L1158.37 219.28ZM1155.49 281.04L1145.77 278.679L1145.76 278.722L1145.75 278.765L1155.49 281.04ZM1155.17 350.16H1165.17V340.16H1155.17V350.16ZM1136.29 275.28L1145.94 277.896L1145.94 277.885L1145.94 277.873L1136.29 275.28ZM1111.33 250L1102.58 245.144L1102.57 245.16L1102.57 245.177L1111.33 250ZM1086.05 304.72L1076.65 301.284L1076.64 301.335L1076.62 301.386L1086.05 304.72ZM1075.17 338.64L1084.94 340.764L1084.95 340.722L1084.96 340.68L1075.17 338.64ZM1065.89 296.08L1056.05 294.257L1056.04 294.305L1056.04 294.354L1065.89 296.08ZM1049.89 234.96L1058.25 240.437L1058.28 240.402L1058.3 240.368L1049.89 234.96ZM1029.09 275.92L1038.34 279.706L1038.36 279.659L1038.38 279.612L1029.09 275.92ZM1005.41 339.6L995.692 337.225L995.641 337.431L995.6 337.639L1005.41 339.6ZM999.966 336C999.762 336 1000.07 335.967 1000.6 336.239C1001.17 336.529 1001.51 336.92 1001.63 337.103C1001.7 337.22 1001.52 336.995 1001.34 336.139C1001.15 335.289 1001.01 334.022 1001.01 332.24H981.006C981.006 337.593 981.819 343.338 984.866 348.017C988.396 353.438 993.964 356 999.966 356V336ZM1001.01 332.24C1001.01 332.291 1001.03 331.74 1001.22 330.131C1001.39 328.686 1001.65 326.73 1002.02 324.234C1002.75 319.25 1003.86 312.318 1005.35 303.409C1008.33 285.602 1012.8 260.075 1018.77 226.807L999.083 223.273C993.107 256.565 988.619 282.185 985.622 300.111C984.125 309.069 982.993 316.15 982.232 321.326C981.528 326.112 981.006 330.111 981.006 332.24H1001.01ZM1018.83 226.454C1019.01 225.166 1019.21 225.606 1018.44 226.508C1017.99 227.026 1017.35 227.545 1016.53 227.902C1015.74 228.249 1015.07 228.32 1014.69 228.32V208.32C1010.45 208.32 1006.29 209.952 1003.25 213.492C1000.56 216.634 999.482 220.434 999.026 223.626L1018.83 226.454ZM1014.69 228.32C1014.41 228.32 1014.01 228.264 1013.57 228.084C1013.14 227.906 1012.88 227.693 1012.79 227.603C1012.71 227.531 1012.82 227.612 1013.04 227.997C1013.27 228.383 1013.56 228.997 1013.88 229.911L1032.78 223.369C1030.33 216.309 1024.95 208.32 1014.69 208.32V228.32ZM1013.91 230.003C1014.54 231.768 1014.93 233.917 1014.93 236.56H1034.93C1034.93 231.949 1034.25 227.486 1032.74 223.277L1013.91 230.003ZM1014.93 236.56C1014.93 239.153 1014.6 242.186 1013.86 245.7L1033.43 249.82C1034.4 245.227 1034.93 240.794 1034.93 236.56H1014.93ZM1013.83 245.824L1009.03 270.144L1028.66 274.016L1033.46 249.696L1013.83 245.824ZM1018.85 282.08H1020.77V262.08H1018.85V282.08ZM1029.9 276.141C1039.12 255.406 1047.88 240.571 1056.03 231.074C1064.31 221.434 1070.69 218.72 1075.17 218.72V198.72C1062.15 198.72 1050.71 206.566 1040.86 218.046C1030.88 229.669 1021.19 246.514 1011.63 268.019L1029.9 276.141ZM1075.17 218.72C1078.42 218.72 1080.11 219.714 1081.44 221.367L1097.05 208.873C1091.55 201.993 1083.85 198.72 1075.17 198.72V218.72ZM1081.63 221.596C1083.61 223.929 1084.69 226.708 1084.69 230.48H1104.69C1104.69 222.305 1102.14 214.845 1096.87 208.644L1081.63 221.596ZM1084.69 230.48C1084.69 240.643 1083.11 253.783 1079.77 270.071L1099.36 274.089C1102.85 257.097 1104.69 242.504 1104.69 230.48H1084.69ZM1089.57 282.08H1090.85V262.08H1089.57V282.08ZM1099.93 276.255C1108.81 256.938 1117.29 243.171 1125.23 234.381C1133.22 225.524 1139.56 222.88 1144.29 222.88V202.88C1131.51 202.88 1120.2 210.103 1110.38 220.979C1100.5 231.923 1091.02 247.755 1081.76 267.905L1099.93 276.255ZM1144.29 222.88C1147.21 222.88 1149.08 223.798 1150.75 225.756L1165.99 212.804C1160.4 206.229 1152.88 202.88 1144.29 202.88V222.88ZM1150.75 225.756C1152.47 227.788 1153.81 230.945 1153.81 236.24H1173.81C1173.81 227.455 1171.51 219.305 1165.99 212.804L1150.75 225.756ZM1153.81 236.24C1153.81 241.853 1151.39 255.559 1145.77 278.679L1165.2 283.401C1170.68 260.868 1173.81 244.707 1173.81 236.24H1153.81ZM1145.75 278.765C1140.42 301.555 1137.49 318.687 1137.49 329.36H1157.49C1157.49 321.259 1159.88 306.178 1165.22 283.315L1145.75 278.765ZM1137.49 329.36C1137.49 336.627 1138.12 343.263 1140.02 348.424C1141 351.066 1142.54 353.968 1145.1 356.283C1147.88 358.789 1151.38 360.16 1155.17 360.16V340.16C1156.39 340.16 1157.65 340.664 1158.51 341.437C1159.15 342.018 1159.09 342.321 1158.79 341.496C1158.13 339.724 1157.49 335.96 1157.49 329.36H1137.49ZM1145.17 350.16C1145.17 348.652 1145.68 347.55 1146.03 346.992C1146.35 346.508 1146.52 346.455 1146.15 346.746L1158.43 362.534C1161.26 360.331 1165.17 356.258 1165.17 350.16H1145.17ZM1146.15 346.746C1146.09 346.788 1146.06 346.807 1146.04 346.815C1146.03 346.823 1146.02 346.828 1146 346.833C1145.99 346.839 1145.86 346.88 1145.57 346.88V366.88C1150.22 366.88 1154.65 365.467 1158.43 362.534L1146.15 346.746ZM1145.57 346.88C1142.49 346.88 1141.18 345.948 1140.08 344.225C1138.49 341.737 1137.01 336.726 1137.01 327.76H1117.01C1117.01 338.207 1118.61 347.756 1123.21 354.975C1128.3 362.959 1136.27 366.88 1145.57 366.88V346.88ZM1137.01 327.76C1137.01 316.965 1139.81 300.513 1145.94 277.896L1126.63 272.664C1120.39 295.701 1117.01 314.235 1117.01 327.76H1137.01ZM1145.94 277.873C1149.06 266.265 1151.43 256.629 1153.03 249.017C1154.58 241.64 1155.57 235.459 1155.57 231.12H1135.57C1135.57 233.181 1135 237.56 1133.46 244.903C1131.97 252.011 1129.7 261.255 1126.63 272.687L1145.94 277.873ZM1155.57 231.12C1155.57 227.058 1154.97 222.289 1152.37 218.259C1149.28 213.476 1144.35 211.2 1139.17 211.2V231.2C1138.93 231.2 1138.23 231.148 1137.38 230.704C1136.48 230.243 1135.89 229.602 1135.56 229.101C1135.28 228.668 1135.31 228.498 1135.39 228.882C1135.47 229.26 1135.57 229.973 1135.57 231.12H1155.57ZM1139.17 211.2C1131.14 211.2 1124.39 215.973 1119.1 221.45C1113.59 227.149 1108.11 235.203 1102.58 245.144L1120.07 254.856C1125.21 245.597 1129.7 239.251 1133.48 235.35C1137.46 231.227 1139.3 231.2 1139.17 231.2V211.2ZM1102.57 245.177C1091.91 264.539 1083.25 283.243 1076.65 301.284L1095.44 308.156C1101.64 291.21 1109.84 273.434 1120.09 254.823L1102.57 245.177ZM1076.62 301.386C1070.5 318.694 1066.61 330.686 1065.38 336.6L1084.96 340.68C1085.86 336.354 1089.22 325.733 1095.47 308.054L1076.62 301.386ZM1065.39 336.516C1065.22 337.322 1065.05 337.827 1064.94 338.1C1064.82 338.382 1064.83 338.285 1065.05 337.997C1065.29 337.686 1065.82 337.136 1066.69 336.678C1067.6 336.201 1068.56 336 1069.41 336V356C1074.27 356 1078.21 353.632 1080.8 350.323C1083.09 347.401 1084.26 343.89 1084.94 340.764L1065.39 336.516ZM1069.41 336C1069.2 336 1069.51 335.967 1070.04 336.239C1070.61 336.529 1070.95 336.92 1071.07 337.103C1071.14 337.22 1070.96 336.995 1070.78 336.139C1070.59 335.289 1070.45 334.022 1070.45 332.24H1050.45C1050.45 337.593 1051.26 343.338 1054.31 348.017C1057.84 353.438 1063.4 356 1069.41 356V336ZM1070.45 332.24C1070.45 332.242 1070.45 332.224 1070.45 332.181C1070.45 332.139 1070.45 332.08 1070.45 332.003C1070.46 331.845 1070.48 331.635 1070.5 331.366C1070.54 330.823 1070.61 330.115 1070.72 329.224C1070.93 327.441 1071.25 325.086 1071.69 322.128C1072.58 316.217 1073.93 308.121 1075.74 297.806L1056.04 294.354C1054.22 304.732 1052.84 313.009 1051.92 319.152C1051.04 324.959 1050.45 329.631 1050.45 332.24H1070.45ZM1075.72 297.903C1079.25 278.876 1081.91 263.622 1083.69 252.178C1085.42 241.03 1086.45 232.779 1086.45 228.24H1066.45C1066.45 230.954 1065.71 237.637 1063.92 249.102C1062.19 260.271 1059.57 275.311 1056.05 294.257L1075.72 297.903ZM1086.45 228.24C1086.45 223.882 1085.88 218.995 1083.53 214.879C1080.7 209.926 1075.8 207.04 1070.05 207.04V227.04C1069.61 227.04 1068.76 226.931 1067.81 226.378C1066.86 225.827 1066.36 225.144 1066.16 224.801C1066 224.52 1066.1 224.565 1066.22 225.211C1066.34 225.839 1066.45 226.82 1066.45 228.24H1086.45ZM1070.05 207.04C1063.66 207.04 1058.25 210.305 1054.04 214.046C1049.73 217.882 1045.56 223.201 1041.47 229.552L1058.3 240.368C1061.89 234.772 1064.93 231.131 1067.33 228.994C1069.84 226.762 1070.67 227.04 1070.05 227.04V207.04ZM1041.52 229.483C1033.41 241.875 1026.18 256.147 1019.79 272.228L1038.38 279.612C1044.36 264.546 1051 251.512 1058.25 240.437L1041.52 229.483ZM1019.83 272.134C1006.47 304.78 998.252 326.753 995.692 337.225L1015.12 341.975C1017.25 333.247 1024.82 312.767 1038.34 279.706L1019.83 272.134ZM995.6 337.639C995.338 338.946 995.146 338.677 995.786 337.924C996.166 337.477 996.78 336.937 997.648 336.533C998.519 336.128 999.344 336 999.966 336V356C1004.32 356 1008.24 354.154 1011.03 350.876C1013.48 347.99 1014.62 344.521 1015.21 341.561L995.6 337.639ZM1234.03 180.24L1228.68 171.792L1228.58 171.855L1228.48 171.919L1234.03 180.24ZM1219.63 180.24L1229.21 177.367L1229.17 177.221L1229.12 177.078L1219.63 180.24ZM1219.31 179.28V169.28H1205.44L1209.82 182.442L1219.31 179.28ZM1223.47 173.2L1233.26 175.26L1233.27 175.211L1233.28 175.161L1223.47 173.2ZM1227.31 160.72L1218.19 156.616L1218.14 156.727L1218.09 156.839L1227.31 160.72ZM1239.15 316.24L1230.89 310.61L1230.89 310.61L1239.15 316.24ZM1275.95 250V240H1269.73L1266.98 245.58L1275.95 250ZM1284.59 250L1293.54 254.472L1300.77 240H1284.59V250ZM1279.47 260.56L1270.44 256.261L1270.4 256.358L1270.35 256.456L1279.47 260.56ZM1267.63 283.92L1276.44 288.661L1276.45 288.626L1276.47 288.591L1267.63 283.92ZM1250.35 313.36L1241.97 307.91L1241.92 307.985L1241.87 308.06L1250.35 313.36ZM1232.11 336.72L1224.93 329.759L1224.93 329.762L1232.11 336.72ZM1204.27 241.36L1213.97 243.814L1213.99 243.732L1214.01 243.65L1204.27 241.36ZM1206.19 233.04L1196.7 229.878L1196.54 230.367L1196.43 230.871L1206.19 233.04ZM1208.11 225.68L1217.89 227.775L1217.9 227.708L1217.92 227.641L1208.11 225.68ZM1210.03 217.04L1219.73 219.465L1219.75 219.411L1219.76 219.356L1210.03 217.04ZM1224.11 218.64L1214.55 221.581L1214.59 221.692L1214.62 221.802L1224.11 218.64ZM1224.11 239.44L1233.87 241.609L1233.89 241.555L1233.9 241.5L1224.11 239.44ZM1219.95 256.72L1229.65 259.145L1229.65 259.145L1219.95 256.72ZM1215.47 275.6L1205.7 273.476L1205.7 273.476L1215.47 275.6ZM1211.95 293.52L1221.76 295.481L1221.77 295.395L1221.79 295.309L1211.95 293.52ZM1236.27 164.32C1236.38 164.32 1236.01 164.338 1235.39 164.062C1234.72 163.759 1234.14 163.276 1233.76 162.758C1233.42 162.299 1233.4 162.046 1233.46 162.301C1233.53 162.565 1233.63 163.172 1233.63 164.24H1253.63C1253.63 159.989 1252.89 154.982 1249.82 150.842C1246.34 146.142 1241.21 144.32 1236.27 144.32V164.32ZM1233.63 164.24C1233.63 166.878 1232.68 169.258 1228.68 171.792L1239.38 188.688C1248.18 183.115 1253.63 174.828 1253.63 164.24H1233.63ZM1228.48 171.919C1227.33 172.69 1226.49 173.102 1225.96 173.307C1225.43 173.512 1225.38 173.44 1225.71 173.44V193.44C1230.93 193.44 1235.69 191.156 1239.58 188.561L1228.48 171.919ZM1225.71 173.44C1224.89 173.44 1225.33 173.288 1226.29 173.791C1226.82 174.073 1227.47 174.536 1228.05 175.238C1228.64 175.945 1229.01 176.699 1229.21 177.367L1210.05 183.113C1211.17 186.832 1213.66 189.745 1216.97 191.489C1219.96 193.059 1223.11 193.44 1225.71 193.44V173.44ZM1229.12 177.078L1228.8 176.118L1209.82 182.442L1210.14 183.402L1229.12 177.078ZM1219.31 189.28C1224.48 189.28 1228.07 186.294 1230.04 183.407C1231.82 180.813 1232.72 177.81 1233.26 175.26L1213.69 171.14C1213.37 172.644 1213.15 172.68 1213.54 172.113C1213.78 171.757 1214.36 171.025 1215.43 170.374C1216.57 169.674 1217.93 169.28 1219.31 169.28V189.28ZM1233.28 175.161C1234 171.56 1235.08 168.042 1236.53 164.601L1218.09 156.839C1216.13 161.504 1214.65 166.307 1213.67 171.239L1233.28 175.161ZM1236.43 164.824C1236.64 164.351 1236.81 164.104 1236.89 164.004C1236.96 163.913 1236.94 163.962 1236.8 164.057C1236.74 164.103 1236.66 164.15 1236.57 164.194C1236.49 164.237 1236.4 164.268 1236.33 164.29C1236.18 164.336 1236.14 164.32 1236.27 164.32V144.32C1232.39 144.32 1228.54 145.378 1225.18 147.783C1221.9 150.124 1219.68 153.305 1218.19 156.616L1236.43 164.824ZM1215.79 348.32C1222.63 348.32 1228.43 344.07 1232.66 340.067C1237.31 335.676 1242.23 329.489 1247.42 321.87L1230.89 310.61C1226.05 317.711 1222.06 322.564 1218.92 325.533C1215.37 328.89 1214.49 328.32 1215.79 328.32V348.32ZM1247.42 321.87C1257.68 306.796 1266.56 291.673 1274.04 276.5L1256.1 267.66C1249.07 281.927 1240.67 296.244 1230.89 310.61L1247.42 321.87ZM1274.04 276.5L1284.92 254.42L1266.98 245.58L1256.1 267.66L1274.04 276.5ZM1275.95 260H1284.59V240H1275.95V260ZM1275.65 245.528C1274.32 248.172 1272.59 251.758 1270.44 256.261L1288.5 264.859C1290.62 260.402 1292.3 256.948 1293.54 254.472L1275.65 245.528ZM1270.35 256.456C1268.58 260.394 1264.78 267.915 1258.79 279.249L1276.47 288.591C1282.43 277.312 1286.52 269.259 1288.59 264.664L1270.35 256.456ZM1258.83 279.179C1252.95 290.085 1247.33 299.654 1241.97 307.91L1258.74 318.81C1264.46 310 1270.36 299.942 1276.44 288.661L1258.83 279.179ZM1241.87 308.06C1236.9 316.011 1231.26 323.238 1224.93 329.759L1239.29 343.681C1246.62 336.122 1253.13 327.776 1258.83 318.66L1241.87 308.06ZM1224.93 329.762C1218.64 336.258 1215.4 336.96 1214.83 336.96V356.96C1224.08 356.96 1232.36 350.835 1239.29 343.678L1224.93 329.762ZM1214.83 336.96C1209.28 336.96 1206.62 335.292 1204.99 333.175C1202.98 330.564 1201.15 325.475 1201.15 316.24H1181.15C1181.15 327.485 1183.27 337.756 1189.15 345.385C1195.41 353.508 1204.6 356.96 1214.83 356.96V336.96ZM1201.15 316.24C1201.15 302.24 1205.23 278.344 1213.97 243.814L1194.58 238.906C1185.82 273.496 1181.15 299.52 1181.15 316.24H1201.15ZM1214.01 243.65C1214.86 240.012 1215.51 237.191 1215.95 235.209L1196.43 230.871C1196.02 232.729 1195.39 235.454 1194.54 239.07L1214.01 243.65ZM1215.68 236.202C1216.48 233.804 1217.21 230.961 1217.89 227.775L1198.33 223.585C1197.74 226.372 1197.19 228.436 1196.7 229.878L1215.68 236.202ZM1217.92 227.641C1218.53 224.562 1219.14 221.841 1219.73 219.465L1200.33 214.615C1199.64 217.359 1198.97 220.398 1198.31 223.719L1217.92 227.641ZM1219.76 219.356C1219.92 218.692 1220.06 218.319 1220.13 218.161C1220.2 217.999 1220.15 218.177 1219.86 218.508C1219.56 218.864 1219.01 219.368 1218.18 219.765C1217.33 220.169 1216.49 220.32 1215.79 220.32V200.32C1211.28 200.32 1207.4 202.316 1204.68 205.492C1202.26 208.311 1201.02 211.72 1200.3 214.724L1219.76 219.356ZM1215.79 220.32C1215.52 220.32 1215.09 220.264 1214.6 220.062C1214.13 219.861 1213.82 219.609 1213.68 219.471C1213.56 219.352 1213.64 219.389 1213.83 219.741C1214.02 220.095 1214.28 220.682 1214.55 221.581L1233.67 215.699C1232.55 212.058 1230.78 208.29 1227.82 205.329C1224.61 202.112 1220.43 200.32 1215.79 200.32V220.32ZM1214.62 221.802C1215.04 223.06 1215.39 225.023 1215.39 227.92H1235.39C1235.39 223.564 1234.89 219.34 1233.6 215.478L1214.62 221.802ZM1215.39 227.92C1215.39 230.765 1215.06 233.91 1214.33 237.38L1233.9 241.5C1234.87 236.863 1235.39 232.328 1235.39 227.92H1215.39ZM1214.35 237.271C1213.53 240.977 1212.17 246.633 1210.25 254.295L1229.65 259.145C1231.58 251.447 1232.99 245.583 1233.87 241.609L1214.35 237.271ZM1210.25 254.295C1208.32 262.025 1206.8 268.428 1205.7 273.476L1225.24 277.724C1226.28 272.958 1227.75 266.775 1229.65 259.145L1210.25 254.295ZM1205.7 273.476C1204.6 278.529 1203.41 284.622 1202.11 291.731L1221.79 295.309C1223.06 288.338 1224.21 282.484 1225.24 277.724L1205.7 273.476ZM1202.15 291.559C1199.71 303.755 1198.43 314.884 1198.43 324.88H1218.43C1218.43 316.529 1219.5 306.752 1221.76 295.481L1202.15 291.559ZM1198.43 324.88C1198.43 329.945 1199.07 335.322 1201.5 339.763C1202.8 342.134 1204.7 344.394 1207.37 346.022C1210.07 347.662 1212.99 348.32 1215.79 348.32V328.32C1216.14 328.32 1216.92 328.418 1217.77 328.938C1218.6 329.446 1218.97 330.026 1219.04 330.157C1219.08 330.232 1218.9 329.923 1218.73 328.964C1218.56 328.027 1218.43 326.692 1218.43 324.88H1198.43ZM1279.63 225.04L1289.47 226.807L1289.5 226.631L1289.53 226.454L1279.63 225.04ZM1294.03 226.64L1284.58 229.911L1284.59 229.957L1284.61 230.003L1294.03 226.64ZM1294.35 247.76L1284.56 245.7L1284.55 245.749L1284.54 245.799L1294.35 247.76ZM1289.23 273.36L1279.42 271.399L1277.03 283.36H1289.23V273.36ZM1291.15 273.36V283.36H1297.64L1300.28 277.43L1291.15 273.36ZM1361.87 215.12L1354.25 221.596L1354.33 221.693L1354.42 221.788L1361.87 215.12ZM1358.67 279.12L1348.94 276.796L1348.94 276.796L1358.67 279.12ZM1357.71 350.16H1367.71V340.16H1357.71V350.16ZM1339.15 273.68L1329.5 271.056L1329.49 271.085L1329.48 271.114L1339.15 273.68ZM1313.23 247.12L1304.44 242.351L1304.42 242.387L1304.4 242.424L1313.23 247.12ZM1287.31 304.72L1277.9 301.329L1277.89 301.36L1277.88 301.392L1287.31 304.72ZM1276.11 338.96L1266.36 336.744L1266.31 336.957L1266.27 337.171L1276.11 338.96ZM1270.67 336C1270.47 336 1270.77 335.967 1271.31 336.239C1271.87 336.529 1272.21 336.92 1272.33 337.103C1272.4 337.22 1272.23 336.995 1272.04 336.139C1271.86 335.289 1271.71 334.022 1271.71 332.24H1251.71C1251.71 337.593 1252.52 343.338 1255.57 348.017C1259.1 353.438 1264.67 356 1270.67 356V336ZM1271.71 332.24C1271.71 332.291 1271.73 331.74 1271.92 330.131C1272.09 328.686 1272.36 326.73 1272.72 324.234C1273.46 319.25 1274.56 312.318 1276.05 303.409C1279.03 285.602 1283.5 260.075 1289.47 226.807L1269.79 223.273C1263.81 256.565 1259.32 282.185 1256.33 300.111C1254.83 309.069 1253.7 316.15 1252.94 321.326C1252.23 326.112 1251.71 330.111 1251.71 332.24H1271.71ZM1289.53 226.454C1289.71 225.166 1289.91 225.606 1289.14 226.508C1288.7 227.026 1288.05 227.545 1287.24 227.902C1286.44 228.249 1285.77 228.32 1285.39 228.32V208.32C1281.15 208.32 1276.99 209.952 1273.96 213.492C1271.26 216.634 1270.19 220.434 1269.73 223.626L1289.53 226.454ZM1285.39 228.32C1285.11 228.32 1284.71 228.264 1284.27 228.084C1283.84 227.906 1283.59 227.693 1283.49 227.603C1283.42 227.531 1283.52 227.612 1283.75 227.997C1283.97 228.383 1284.26 228.997 1284.58 229.911L1303.48 223.369C1301.03 216.309 1295.65 208.32 1285.39 208.32V228.32ZM1284.61 230.003C1285.24 231.768 1285.63 233.917 1285.63 236.56H1305.63C1305.63 231.949 1304.95 227.486 1303.45 223.277L1284.61 230.003ZM1285.63 236.56C1285.63 239.153 1285.3 242.186 1284.56 245.7L1304.13 249.82C1305.1 245.227 1305.63 240.794 1305.63 236.56H1285.63ZM1284.54 245.799L1279.42 271.399L1299.03 275.321L1304.15 249.721L1284.54 245.799ZM1289.23 283.36H1291.15V263.36H1289.23V283.36ZM1300.28 277.43C1309.72 256.257 1318.64 241.086 1326.92 231.363C1335.35 221.467 1341.78 218.72 1346.19 218.72V198.72C1333.11 198.72 1321.62 206.747 1311.69 218.397C1301.63 230.221 1291.78 247.369 1282.01 269.29L1300.28 277.43ZM1346.19 218.72C1350.78 218.72 1352.94 220.05 1354.25 221.596L1369.49 208.644C1363.55 201.656 1355.25 198.72 1346.19 198.72V218.72ZM1354.42 221.788C1355.92 223.469 1357.31 226.453 1357.31 232.08H1377.31C1377.31 223.2 1375.07 214.878 1369.32 208.452L1354.42 221.788ZM1357.31 232.08C1357.31 237.923 1354.78 252.381 1348.94 276.796L1368.39 281.444C1374.08 257.646 1377.31 240.744 1377.31 232.08H1357.31ZM1348.94 276.796C1343.2 300.816 1340.03 318.639 1340.03 329.36H1360.03C1360.03 321.308 1362.61 305.637 1368.39 281.444L1348.94 276.796ZM1340.03 329.36C1340.03 336.627 1340.66 343.263 1342.57 348.424C1343.54 351.066 1345.08 353.968 1347.65 356.283C1350.42 358.789 1353.92 360.16 1357.71 360.16V340.16C1358.93 340.16 1360.19 340.664 1361.05 341.437C1361.69 342.018 1361.63 342.321 1361.33 341.496C1360.68 339.724 1360.03 335.96 1360.03 329.36H1340.03ZM1347.71 350.16C1347.71 348.652 1348.22 347.55 1348.58 346.992C1348.89 346.508 1349.06 346.455 1348.69 346.746L1360.97 362.534C1363.8 360.331 1367.71 356.258 1367.71 350.16H1347.71ZM1348.69 346.746C1348.64 346.788 1348.6 346.807 1348.59 346.815C1348.57 346.823 1348.56 346.828 1348.55 346.833C1348.53 346.839 1348.4 346.88 1348.11 346.88V366.88C1352.77 366.88 1357.2 365.467 1360.97 362.534L1348.69 346.746ZM1348.11 346.88C1345.03 346.88 1343.72 345.948 1342.62 344.225C1341.04 341.737 1339.55 336.726 1339.55 327.76H1319.55C1319.55 338.207 1321.16 347.756 1325.76 354.975C1330.84 362.959 1338.81 366.88 1348.11 366.88V346.88ZM1339.55 327.76C1339.55 317.188 1342.45 300.217 1348.81 276.246L1329.48 271.114C1323.05 295.356 1319.55 314.438 1319.55 327.76H1339.55ZM1348.8 276.304C1352.13 264.058 1354.66 253.916 1356.37 245.931C1358.02 238.195 1359.07 231.751 1359.07 227.28H1339.07C1339.07 229.422 1338.46 234.019 1336.81 241.749C1335.21 249.231 1332.78 258.982 1329.5 271.056L1348.8 276.304ZM1359.07 227.28C1359.07 222.839 1358.25 217.666 1354.95 213.444C1351.28 208.751 1346.03 207.04 1341.07 207.04V227.04C1341.35 227.04 1341.13 227.086 1340.64 226.878C1340.4 226.773 1340.13 226.62 1339.85 226.411C1339.58 226.202 1339.36 225.974 1339.19 225.756C1338.85 225.323 1338.83 225.077 1338.89 225.32C1338.96 225.579 1339.07 226.192 1339.07 227.28H1359.07ZM1341.07 207.04C1332.92 207.04 1326.17 212.189 1321.01 217.767C1315.55 223.664 1310.05 232.01 1304.44 242.351L1322.02 251.889C1327.29 242.176 1331.86 235.483 1335.69 231.353C1339.8 226.904 1341.54 227.04 1341.07 227.04V207.04ZM1304.4 242.424C1293.55 262.831 1284.7 282.468 1277.9 301.329L1296.72 308.111C1303.14 290.279 1311.58 271.515 1322.06 251.816L1304.4 242.424ZM1277.88 301.392C1271.55 319.321 1267.58 331.357 1266.36 336.744L1285.86 341.176C1286.77 337.176 1290.27 326.386 1296.74 308.048L1277.88 301.392ZM1266.27 337.171C1266.14 337.897 1266.01 338.313 1265.94 338.498C1265.86 338.69 1265.91 338.498 1266.2 338.126C1266.51 337.723 1267.09 337.129 1268.01 336.658C1268.96 336.175 1269.9 336 1270.67 336V356C1275.39 356 1279.37 353.782 1282.02 350.354C1284.33 347.37 1285.39 343.815 1285.95 340.749L1266.27 337.171ZM1462.51 329.04L1468.75 336.849L1468.77 336.838L1468.78 336.828L1462.51 329.04ZM1483.31 306.96L1491.4 312.83L1491.46 312.751L1491.52 312.671L1483.31 306.96ZM1512.11 258.96L1503.04 254.749L1503.01 254.809L1502.98 254.869L1512.11 258.96ZM1516.27 250V240H1509.88L1507.2 245.789L1516.27 250ZM1524.91 250L1534.11 253.911L1540.02 240H1524.91V250ZM1508.91 281.68L1517.6 286.625L1517.62 286.593L1517.63 286.562L1508.91 281.68ZM1488.75 313.04L1480.75 307.04L1480.75 307.04L1488.75 313.04ZM1466.03 336.4L1472.18 344.283L1472.24 344.237L1472.3 344.19L1466.03 336.4ZM1408.11 244.24L1416.74 249.286L1416.75 249.27L1416.76 249.254L1408.11 244.24ZM1464.75 266.96L1472.8 272.892L1472.84 272.833L1472.88 272.772L1464.75 266.96ZM1422.83 291.6V301.6H1422.89L1422.96 301.599L1422.83 291.6ZM1418.35 288.4L1408.65 290.825L1408.7 291.051L1408.77 291.273L1418.35 288.4ZM1418.03 287.12V277.12H1405.22L1408.33 289.545L1418.03 287.12ZM1449.71 265.36L1441.5 259.649L1441.49 259.662L1441.48 259.674L1449.71 265.36ZM1425.71 248.4L1416.74 243.966L1416.72 244.016L1416.7 244.065L1425.71 248.4ZM1403.55 299.28C1403.55 313.068 1405.94 325.202 1412.28 334.113C1419.06 343.652 1429.25 348 1441.07 348V328C1434.54 328 1430.97 325.894 1428.58 322.527C1425.74 318.532 1423.55 311.305 1423.55 299.28H1403.55ZM1441.07 348C1450.92 348 1460.21 343.682 1468.75 336.849L1456.26 321.231C1449.87 326.345 1444.87 328 1441.07 328V348ZM1468.78 336.828C1477.2 330.048 1484.73 322.031 1491.4 312.83L1475.21 301.09C1469.51 308.956 1463.18 315.658 1456.23 321.252L1468.78 336.828ZM1491.52 312.671C1505.3 292.856 1515.31 276.263 1521.23 263.051L1502.98 254.869C1497.81 266.404 1488.62 281.81 1475.1 301.249L1491.52 312.671ZM1521.18 263.171L1525.34 254.211L1507.2 245.789L1503.04 254.749L1521.18 263.171ZM1516.27 260H1524.91V240H1516.27V260ZM1515.7 246.089C1512.27 254.161 1507.13 264.374 1500.18 276.798L1517.63 286.562C1524.77 273.812 1530.29 262.905 1534.11 253.911L1515.7 246.089ZM1500.22 276.735C1493.32 288.855 1486.83 298.933 1480.75 307.04L1496.75 319.04C1503.47 310.08 1510.41 299.252 1517.6 286.625L1500.22 276.735ZM1480.75 307.04C1474.87 314.873 1467.89 322.065 1459.76 328.61L1472.3 344.19C1481.66 336.655 1489.82 328.274 1496.75 319.04L1480.75 307.04ZM1459.87 328.517C1452.19 334.517 1445.98 336.64 1441.07 336.64V356.64C1451.94 356.64 1462.37 351.937 1472.18 344.283L1459.87 328.517ZM1441.07 336.64C1427.14 336.64 1418.43 332.787 1413.01 326.705C1407.39 320.405 1403.71 309.95 1403.71 293.52H1383.71C1383.71 312.503 1387.91 328.608 1398.08 340.015C1408.45 351.64 1423.42 356.64 1441.07 356.64V336.64ZM1403.71 293.52C1403.71 279.131 1407.89 264.427 1416.74 249.286L1399.47 239.194C1389.12 256.907 1383.71 275.056 1383.71 293.52H1403.71ZM1416.76 249.254C1428.92 228.262 1442.46 220 1457.07 220V200C1432.84 200 1413.74 214.565 1399.45 239.226L1416.76 249.254ZM1457.07 220C1462.11 220 1464.12 221.338 1465.05 222.348C1466.13 223.528 1467.55 226.264 1467.55 232.4H1487.55C1487.55 223.603 1485.56 215.139 1479.81 208.852C1473.9 202.396 1465.68 200 1457.07 200V220ZM1467.55 232.4C1467.55 240.829 1464.32 250.354 1456.61 261.148L1472.88 272.772C1482.24 259.673 1487.55 246.158 1487.55 232.4H1467.55ZM1456.7 261.028C1446.08 275.441 1434.77 281.44 1422.69 281.601L1422.96 301.599C1442.89 301.333 1459.52 290.906 1472.8 272.892L1456.7 261.028ZM1422.83 281.6C1423.16 281.6 1424.39 281.685 1425.76 282.663C1427.18 283.675 1427.75 284.936 1427.93 285.527L1408.77 291.273C1409.59 293.997 1411.22 296.858 1414.13 298.937C1417 300.981 1420.15 301.6 1422.83 301.6V281.6ZM1428.05 285.975L1427.73 284.695L1408.33 289.545L1408.65 290.825L1428.05 285.975ZM1418.03 297.12C1433.99 297.12 1447.17 286.619 1457.93 271.046L1441.48 259.674C1432.19 273.114 1424.25 277.12 1418.03 277.12V297.12ZM1457.92 271.071C1468.49 255.876 1475.07 241.506 1475.07 228.56H1455.07C1455.07 235.241 1451.41 245.404 1441.5 259.649L1457.92 271.071ZM1475.07 228.56C1475.07 224.241 1474.28 219.163 1471.05 214.998C1467.45 210.348 1462.27 208.64 1457.39 208.64V228.64C1457.6 228.64 1457.33 228.676 1456.79 228.445C1456.2 228.188 1455.64 227.754 1455.24 227.242C1454.88 226.781 1454.85 226.506 1454.9 226.719C1454.96 226.946 1455.07 227.519 1455.07 228.56H1475.07ZM1457.39 208.64C1448.53 208.64 1440.73 212.598 1434.14 218.792C1427.66 224.882 1421.93 233.481 1416.74 243.966L1434.67 252.834C1439.3 243.479 1443.76 237.198 1447.83 233.368C1451.8 229.642 1454.93 228.64 1457.39 228.64V208.64ZM1416.7 244.065C1408 262.14 1403.55 280.573 1403.55 299.28H1423.55C1423.55 283.853 1427.2 268.367 1434.72 252.735L1416.7 244.065Z" fill="#363636"/>
</svg>
